<?xml version="1.0" encoding="utf-8"?>
<!-- Generator: Adobe Illustrator 24.1.1, SVG Export Plug-In . SVG Version: 6.00 Build 0)  -->
<svg version="1.1" id="Layer_1" xmlns="http://www.w3.org/2000/svg" xmlns:xlink="http://www.w3.org/1999/xlink" x="0px" y="0px"
	 viewBox="0 0 50 50" style="enable-background:new 0 0 50 50;" xml:space="preserve">
<style type="text/css">
	.st0{fill:#FFECA9;}
</style>
<circle class="st0" cx="25" cy="25" r="6.1"/>
<path class="st0" d="M39.8,17.7c-0.1-1.8-0.4-2.7-0.6-3.4c-0.3-0.9-0.7-1.5-1.4-2.1c-0.6-0.6-1.2-1-2.1-1.4
	c-0.6-0.3-1.6-0.5-3.4-0.6c-1.9-0.1-2.5-0.1-7.3-0.1h-1.6c-3.4,0-4,0-5.7,0.1c-1.8,0.1-2.7,0.4-3.4,0.6c-0.9,0.3-1.5,0.7-2.1,1.4
	c-0.6,0.6-1,1.2-1.4,2.1c-0.3,0.6-0.5,1.6-0.6,3.4c-0.1,1.9-0.1,2.5-0.1,7.3c0,4.9,0,5.4,0.1,7.4c0.1,1.8,0.4,2.7,0.6,3.4
	c0.3,0.8,0.7,1.5,1.4,2.1c0.6,0.6,1.2,1,2.1,1.4c0.6,0.3,1.6,0.6,3.4,0.6c1.9,0.1,2.5,0.1,7.3,0.1c4.9,0,5.4,0,7.3-0.1
	c1.8-0.1,2.7-0.4,3.4-0.6c0.9-0.3,1.5-0.7,2.1-1.4c0.6-0.6,1-1.2,1.4-2.1c0.3-0.6,0.5-1.6,0.6-3.4c0.1-1.9,0.1-2.5,0.1-7.3
	C39.9,20.1,39.9,19.6,39.8,17.7z M25,34.3c-5.2,0-9.3-4.2-9.3-9.3s4.2-9.3,9.3-9.3c5.2,0,9.3,4.2,9.3,9.3S30.2,34.3,25,34.3z
	 M34.7,17.5c-1.2,0-2.2-1-2.2-2.2c0-1.2,1-2.2,2.2-2.2c1.2,0,2.2,1,2.2,2.2C36.9,16.5,35.9,17.5,34.7,17.5z"/>
<path class="st0" d="M49.6,11c-0.2-2-0.5-3.3-1.2-4.7c-0.6-1.2-1.2-2-2.1-2.9c-1.6-1.6-3.6-2.5-6-2.9c-1.1-0.2-1.4-0.2-7.3-0.2h-8
	c-10.3,0-13.3,0-13.9,0.1C9,0.6,7.7,1,6.3,1.7c-1.1,0.5-2,1.2-2.8,2.1C1.9,5.3,1,7.3,0.6,9.7c-0.2,1.2-0.2,1.4-0.2,7.3v8
	c0,10.3,0,13.3,0.1,13.9c0.2,2.1,0.5,3.3,1.2,4.8c1.3,2.7,3.8,4.7,6.7,5.5c1,0.3,2.1,0.4,3.6,0.5c0.6,0,6.8,0,13.1,0
	c6.2,0,12.4,0,13,0c1.7-0.1,2.6-0.2,3.7-0.5c3-0.8,5.4-2.8,6.7-5.5c0.7-1.4,1-2.7,1.2-4.7c0-0.4,0-7.2,0-13.9
	C49.6,18.2,49.6,11.5,49.6,11z M43.1,32.5c-0.1,1.9-0.4,3.3-0.8,4.4c-0.5,1.2-1.1,2.2-2.1,3.2s-2,1.6-3.2,2.1
	c-1.2,0.5-2.5,0.8-4.4,0.8c-1.9,0.1-2.5,0.1-7.5,0.1s-5.6,0-7.5-0.1c-1.9-0.1-3.3-0.4-4.4-0.8c-1.2-0.5-2.2-1.1-3.2-2.1
	s-1.6-2-2.1-3.2c-0.5-1.2-0.8-2.5-0.8-4.4c-0.1-1.9-0.1-2.6-0.1-7.5s0-5.6,0.1-7.5c0.1-1.9,0.4-3.3,0.8-4.4c0.5-1.2,1.1-2.2,2.1-3.2
	s2-1.6,3.2-2.1c1.2-0.5,2.5-0.8,4.4-0.8c1.9-0.1,2.6-0.1,7.5-0.1s5.5,0,7.5,0.1c1.9,0.1,3.3,0.4,4.4,0.8c1.2,0.5,2.2,1.1,3.2,2.1
	s1.6,2,2.1,3.2c0.4,1.2,0.8,2.5,0.8,4.4c0.1,1.9,0.1,2.6,0.1,7.5S43.2,30.6,43.1,32.5z"/>
<circle class="st0" cx="25" cy="25" r="6.1"/>
<path class="st0" d="M39.8,17.7c-0.1-1.8-0.4-2.7-0.6-3.4c-0.3-0.9-0.7-1.5-1.4-2.1c-0.6-0.6-1.2-1-2.1-1.4
	c-0.6-0.3-1.6-0.5-3.4-0.6c-1.9-0.1-2.5-0.1-7.3-0.1h-1.6c-3.4,0-4,0-5.7,0.1c-1.8,0.1-2.7,0.4-3.4,0.6c-0.9,0.3-1.5,0.7-2.1,1.4
	c-0.6,0.6-1,1.2-1.4,2.1c-0.3,0.6-0.5,1.6-0.6,3.4c-0.1,1.9-0.1,2.5-0.1,7.3c0,4.9,0,5.4,0.1,7.4c0.1,1.8,0.4,2.7,0.6,3.4
	c0.3,0.8,0.7,1.5,1.4,2.1c0.6,0.6,1.2,1,2.1,1.4c0.6,0.3,1.6,0.6,3.4,0.6c1.9,0.1,2.5,0.1,7.3,0.1c4.9,0,5.4,0,7.3-0.1
	c1.8-0.1,2.7-0.4,3.4-0.6c0.9-0.3,1.5-0.7,2.1-1.4c0.6-0.6,1-1.2,1.4-2.1c0.3-0.6,0.5-1.6,0.6-3.4c0.1-1.9,0.1-2.5,0.1-7.3
	C39.9,20.1,39.9,19.6,39.8,17.7z M25,34.3c-5.2,0-9.3-4.2-9.3-9.3s4.2-9.3,9.3-9.3c5.2,0,9.3,4.2,9.3,9.3S30.2,34.3,25,34.3z
	 M34.7,17.5c-1.2,0-2.2-1-2.2-2.2c0-1.2,1-2.2,2.2-2.2c1.2,0,2.2,1,2.2,2.2C36.9,16.5,35.9,17.5,34.7,17.5z"/>
<path class="st0" d="M49.6,11c-0.2-2-0.5-3.3-1.2-4.7c-0.6-1.2-1.2-2-2.1-2.9c-1.6-1.6-3.6-2.5-6-2.9c-1.1-0.2-1.4-0.2-7.3-0.2h-8
	c-10.3,0-13.3,0-13.9,0.1C9,0.6,7.7,1,6.3,1.7c-1.1,0.5-2,1.2-2.8,2.1C1.9,5.3,1,7.3,0.6,9.7c-0.2,1.2-0.2,1.4-0.2,7.3v8
	c0,10.3,0,13.3,0.1,13.9c0.2,2.1,0.5,3.3,1.2,4.8c1.3,2.7,3.8,4.7,6.7,5.5c1,0.3,2.1,0.4,3.6,0.5c0.6,0,6.8,0,13.1,0
	c6.2,0,12.4,0,13,0c1.7-0.1,2.6-0.2,3.7-0.5c3-0.8,5.4-2.8,6.7-5.5c0.7-1.4,1-2.7,1.2-4.7c0-0.4,0-7.2,0-13.9
	C49.6,18.2,49.6,11.5,49.6,11z M43.1,32.5c-0.1,1.9-0.4,3.3-0.8,4.4c-0.5,1.2-1.1,2.2-2.1,3.2s-2,1.6-3.2,2.1
	c-1.2,0.5-2.5,0.8-4.4,0.8c-1.9,0.1-2.5,0.1-7.5,0.1s-5.6,0-7.5-0.1c-1.9-0.1-3.3-0.4-4.4-0.8c-1.2-0.5-2.2-1.1-3.2-2.1
	s-1.6-2-2.1-3.2c-0.5-1.2-0.8-2.5-0.8-4.4c-0.1-1.9-0.1-2.6-0.1-7.5s0-5.6,0.1-7.5c0.1-1.9,0.4-3.3,0.8-4.4c0.5-1.2,1.1-2.2,2.1-3.2
	s2-1.6,3.2-2.1c1.2-0.5,2.5-0.8,4.4-0.8c1.9-0.1,2.6-0.1,7.5-0.1s5.5,0,7.5,0.1c1.9,0.1,3.3,0.4,4.4,0.8c1.2,0.5,2.2,1.1,3.2,2.1
	s1.6,2,2.1,3.2c0.4,1.2,0.8,2.5,0.8,4.4c0.1,1.9,0.1,2.6,0.1,7.5S43.2,30.6,43.1,32.5z"/>
</svg>
