<svg xmlns="http://www.w3.org/2000/svg" xmlns:xlink="http://www.w3.org/1999/xlink" xmlns:lucid="lucid" width="690" height="434.9"><g transform="translate(-655 -845.0962288152393)" lucid:page-tab-id="0_0"><path d="M1124.57 1010.33c-5.7 68.8-66.1 119.95-134.9 114.24-68.8-5.7-119.95-66.1-114.24-134.9 5.7-68.8 66.1-119.95 134.9-114.24 68.8 5.7 119.95 66.1 114.24 134.9z" fill-opacity="0"/><path d="M1125.07 1010.37c-.02.28-.26.48-.54.46-.27-.02-.48-.26-.46-.54.03-.3.27-.5.54-.47.3.03.5.27.47.54zm-.2 2c-.03.27-.27.48-.55.45-.27-.02-.48-.26-.45-.54.02-.27.26-.48.54-.45.28.02.5.26.46.54zm-.2 2c-.04.26-.28.47-.55.45-.28-.03-.48-.27-.46-.54.02-.28.26-.48.54-.46.27.02.48.26.46.54zm-.25 1.98c-.02.27-.26.48-.54.46-.27-.02-.48-.26-.46-.53.03-.28.27-.48.54-.46.28.03.48.27.46.55zm-.3 1.98c0 .28-.25.48-.53.46-.3-.04-.5-.28-.47-.55.03-.28.27-.48.54-.46.28 0 .48.26.46.53zm-.28 1.98c-.02.3-.27.5-.54.47-.28-.02-.48-.26-.46-.54.03-.27.27-.48.54-.46.28.03.48.27.46.54zm-.35 2c-.03.26-.27.47-.55.44-.27-.02-.48-.26-.46-.54.02-.27.26-.48.53-.45.28.02.48.26.46.54zm-.38 1.95c-.03.28-.27.48-.54.46-.28 0-.48-.25-.46-.53.02-.27.26-.48.54-.46.27.04.48.28.46.55zm-.38 1.97c-.03.28-.27.48-.54.46-.28-.02-.48-.27-.46-.54.02-.28.26-.48.54-.46.27.02.48.27.46.54zm-.46 1.95c-.02.28-.26.48-.54.46-.27-.02-.48-.26-.46-.54.03-.3.27-.5.54-.47.28.03.48.27.46.54zm-.45 1.95c-.03.28-.27.48-.54.46-.3-.02-.5-.26-.47-.54.02-.27.26-.48.54-.46.27.03.48.27.46.54zm-.5 1.95c-.02.27-.26.48-.54.45-.28-.02-.5-.26-.47-.54.03-.27.27-.48.54-.45.28.02.48.26.46.54zm-.54 1.93c-.03.27-.27.48-.54.45-.28-.02-.48-.26-.46-.54.02-.26.26-.47.54-.44.27.02.48.26.45.54zm-.54 1.93c-.03.27-.27.48-.54.45-.28-.02-.48-.26-.46-.54.02-.27.27-.48.54-.45.28 0 .48.25.46.53zm-.6 1.9c-.03.28-.27.5-.55.46-.26-.03-.47-.27-.45-.55.03-.27.27-.48.54-.45.27.02.47.26.45.54zm-.63 1.9c-.02.3-.26.5-.54.47-.28-.02-.5-.27-.46-.54.02-.28.26-.48.54-.46.27.03.48.27.45.54zm-.64 1.9c-.03.3-.27.5-.54.47-.28-.03-.48-.27-.46-.54.02-.28.26-.48.54-.46.27.02.48.27.45.54zm-.7 1.9c-.02.26-.27.47-.54.45-.28-.03-.48-.27-.46-.54.02-.28.27-.48.54-.46.28.02.48.26.46.54zm-.7 1.87c-.02.27-.26.48-.54.46-.27-.03-.48-.27-.45-.54.03-.28.27-.48.54-.46.28.02.48.26.46.54zm-.75 1.86c-.02.27-.26.48-.54.45-.26 0-.47-.25-.44-.53.02-.27.26-.48.53-.45.27.02.47.26.45.54zm-.77 1.84c-.03.28-.27.48-.54.46-.28-.02-.48-.26-.46-.54.02-.27.27-.48.54-.46.28.03.48.27.46.54zm-.78 1.85c-.03.27-.27.48-.54.46-.28-.02-.48-.26-.46-.53.02-.28.26-.48.54-.46.27.03.48.27.46.55zm-.86 1.8c-.02.3-.26.5-.54.47-.27-.02-.48-.26-.45-.54.02-.28.26-.48.54-.46.26.03.47.27.44.54zm-.85 1.83c-.03.27-.27.48-.55.45-.27-.02-.48-.26-.45-.54.02-.28.26-.5.54-.46.27.02.48.26.45.54zm-.9 1.8c-.02.27-.26.47-.54.45-.27-.02-.47-.27-.45-.54.03-.3.27-.5.55-.47.27.03.48.27.45.54zm-.92 1.77c-.02.27-.27.48-.54.46-.28-.02-.48-.26-.46-.53.02-.28.27-.48.54-.46.28.03.48.27.46.55zm-.93 1.78c-.02.27-.26.47-.54.45-.26-.02-.47-.26-.45-.54.03-.27.27-.48.54-.45.27 0 .47.25.45.53zm-1 1.74c0 .27-.26.48-.53.45-.28-.02-.48-.26-.46-.54.02-.27.27-.48.54-.45.28.02.48.26.46.54zm-1 1.73c0 .28-.26.48-.53.46-.28-.02-.48-.27-.46-.54.02-.28.27-.48.54-.46.28.02.48.27.46.54zm-1 1.72c-.04.28-.28.48-.55.46-.28-.02-.48-.26-.46-.54.02-.27.26-.48.54-.45.28 0 .48.25.46.52zm-1.08 1.7c-.03.27-.27.48-.54.45-.28-.02-.48-.26-.46-.53.02-.28.26-.48.54-.46.28.02.5.26.47.54zm-1.08 1.7c-.03.27-.27.47-.55.45-.27-.03-.48-.27-.45-.54.02-.28.26-.48.54-.46.27.02.48.27.45.54zm-1.13 1.65c-.02.28-.26.48-.54.46-.27-.02-.48-.27-.45-.54.02-.3.26-.5.54-.47.27.02.48.27.45.54zm-1.14 1.65c-.02.27-.26.48-.54.45-.28-.02-.5-.26-.47-.53.03-.28.27-.48.54-.46.28.02.48.26.46.54zm-1.15 1.64c-.02.28-.26.48-.54.46-.27-.03-.48-.27-.45-.54 0-.28.25-.48.53-.46.27.02.48.27.45.54zm-1.2 1.6c-.03.27-.27.48-.55.45-.27 0-.48-.25-.45-.53.02-.27.26-.48.54-.45.27.02.48.26.45.54zm-1.22 1.6c-.02.27-.26.47-.54.45-.27 0-.48-.25-.45-.53.02-.27.26-.48.54-.45.28.02.5.26.46.53zm-1.24 1.57c-.02.27-.26.48-.54.45-.27-.02-.48-.26-.45-.54.02-.27.26-.47.54-.45.27 0 .48.25.45.53zm-1.27 1.54c-.03.28-.27.48-.54.46-.27-.02-.47-.26-.45-.54.02-.3.27-.5.54-.47.27.03.47.27.45.54zm-1.28 1.55c-.02.27-.26.48-.54.45-.27-.02-.48-.26-.45-.53.02-.28.26-.48.53-.46.3.02.5.26.47.54zm-1.33 1.5c-.02.27-.26.48-.54.45-.27-.02-.48-.26-.45-.54.02-.27.26-.48.53-.45.28.02.48.26.46.54zm-1.34 1.5c-.02.26-.26.47-.54.44-.27-.02-.48-.26-.45-.54.03-.27.27-.48.55-.45.27.02.48.26.45.54zm-1.35 1.46c-.02.28-.26.48-.54.46-.27-.02-.47-.26-.45-.54.03-.27.27-.48.54-.46.27.03.47.27.45.54zm-1.4 1.44c-.02.27-.27.48-.54.45-.27-.02-.47-.26-.45-.54.03-.27.27-.48.54-.45.27.02.47.26.45.54zm-1.4 1.43c-.02.28-.27.48-.54.46-.27-.02-.47-.26-.45-.53.02-.28.27-.48.54-.46.27.03.47.28.45.55zm-1.44 1.4c0 .27-.25.48-.53.45-.27-.02-.48-.26-.45-.54.02-.27.26-.48.54-.45.27.03.48.27.45.55zm-1.45 1.37c-.02.28-.26.48-.54.46-.26-.03-.47-.27-.44-.54.02-.28.26-.48.54-.46.27.02.48.27.45.54zm-1.46 1.37c-.03.27-.27.47-.55.45-.27-.02-.47-.26-.45-.54.02-.26.26-.47.54-.45.27.03.48.27.45.54zm-1.52 1.3c-.02.28-.26.5-.54.46-.27-.02-.48-.26-.46-.54.03-.27.27-.48.54-.45.28.02.48.26.46.54zm-1.5 1.32c-.04.27-.28.48-.55.45-.28-.02-.48-.26-.46-.54.02-.27.26-.48.54-.45.28.02.5.26.47.54zm-1.55 1.3c-.02.26-.26.47-.54.44-.28-.02-.5-.26-.47-.54.03-.27.27-.48.54-.45.28.02.48.26.46.54zm-1.57 1.23c-.02.28-.26.48-.54.46-.27 0-.48-.26-.45-.53.02-.28.26-.48.54-.46.28.04.5.28.46.55zm-1.57 1.25c-.03.27-.27.48-.55.46-.27-.03-.48-.27-.45-.54.02-.28.26-.48.54-.46.27.02.48.26.45.54zm-1.6 1.2c-.03.27-.28.48-.55.45-.28-.02-.48-.26-.46-.54 0-.26.26-.47.53-.44.28.02.48.26.46.54zm-1.63 1.18c-.02.27-.27.48-.54.45-.28-.02-.48-.26-.46-.54.02-.28.27-.5.54-.46.3.02.5.26.47.54zm-1.63 1.17c-.02.27-.26.48-.54.46-.27-.02-.47-.26-.45-.53.02-.28.26-.48.54-.46.26.03.47.27.44.55zm-1.66 1.1c-.03.3-.27.5-.54.47-.28-.03-.48-.27-.46-.54.02-.28.26-.48.54-.46.27.02.48.26.46.54zm-1.67 1.12c0 .28-.26.48-.53.46-.28-.03-.48-.27-.46-.54.04-.3.28-.5.55-.47.28.02.48.27.46.54zm-1.68 1.08c-.02.27-.26.48-.54.46-.27-.02-.48-.26-.46-.53.03-.28.27-.48.54-.46.28.03.48.27.46.55zm-1.7 1.04c-.04.26-.28.47-.55.45-.28-.03-.48-.27-.46-.54.03-.27.28-.47.55-.45.28.02.48.26.46.54zm-1.73 1.03c-.03.27-.27.48-.54.46-.28-.04-.48-.28-.46-.55.02-.28.26-.48.54-.46.27 0 .48.25.45.53zm-1.75.98c-.03.28-.27.5-.54.46-.27-.02-.47-.26-.45-.54.02-.27.26-.48.54-.45.26.02.47.26.45.54zm-1.76.97c-.03.28-.27.48-.55.46-.27-.02-.48-.26-.45-.54.02-.28.26-.5.53-.47.28.03.48.27.46.54zm-1.77.95c-.02.28-.27.48-.54.46-.3-.02-.5-.26-.47-.54.02-.27.27-.48.54-.46.28.03.48.27.46.54zm-1.8.9c-.02.27-.26.48-.54.45-.28-.02-.5-.26-.46-.54.02-.27.26-.48.54-.45.27.02.48.26.45.54zm-1.8.9c0 .27-.25.47-.53.45-.27-.03-.48-.27-.46-.54.03-.28.27-.48.54-.46.28.02.48.26.46.54zm-1.8.84c-.03.27-.27.48-.54.45-.3 0-.5-.25-.47-.53.02-.27.26-.48.54-.45.27.02.48.26.45.54zm-1.83.8c-.03.3-.27.5-.54.47-.28-.02-.48-.26-.46-.54.02-.28.26-.5.54-.47.27.03.48.27.46.54zm-1.83.83c-.03.27-.27.47-.54.45-.28-.03-.48-.27-.46-.54.02-.27.26-.47.54-.45.28.02.5.27.47.54zm-1.87.73c-.02.27-.26.48-.54.46-.27-.04-.48-.28-.45-.55.03-.28.27-.48.55-.46.27 0 .48.25.45.53zm-1.86.74c-.02.27-.26.48-.54.46-.27-.03-.48-.27-.46-.54.03-.3.27-.5.54-.47.28.02.48.26.46.54zm-1.87.7c-.03.28-.27.5-.54.46-.28-.02-.48-.26-.46-.54.02-.28.26-.48.54-.46.3.02.5.26.47.54zm-1.9.67c-.02.27-.26.48-.53.46-.28-.03-.48-.27-.46-.54.02-.28.26-.48.54-.46.27.02.48.26.46.54zm-1.9.66c0 .27-.25.48-.53.46-.27-.03-.48-.27-.45-.54 0-.28.25-.48.53-.46.27.02.48.26.45.54zm-1.9.6c-.02.27-.26.48-.54.45-.27-.02-.48-.26-.45-.54.02-.26.26-.47.53-.44.3.02.5.26.47.54zm-1.92.58c-.02.27-.26.48-.54.45-.26-.02-.47-.26-.44-.54.02-.28.26-.5.54-.46.27.02.48.26.45.54zm-1.92.56c-.02.28-.26.48-.54.46-.28-.02-.5-.27-.46-.54.02-.28.26-.48.53-.46.28.03.48.27.46.54zm-1.94.5c-.03.28-.27.48-.55.46-.27-.02-.48-.27-.46-.54.02-.28.26-.48.53-.46.28.03.48.27.46.54zm-1.95.5c-.02.28-.26.48-.54.46-.26-.02-.47-.26-.45-.54.03-.28.27-.48.54-.46.27.03.47.27.45.54zm-1.95.45c-.02.27-.27.47-.54.45-.28-.02-.48-.26-.46-.54.03-.27.27-.47.54-.45.28.03.48.27.46.54zm-1.96.4c-.02.3-.26.5-.54.47-.28-.02-.48-.27-.46-.54.03-.28.27-.48.54-.46.28.02.48.27.46.54zm-1.96.43c-.02.27-.26.48-.54.46-.27-.04-.48-.28-.46-.55.03-.28.27-.48.54-.46.28 0 .48.25.46.53zm-1.98.33c-.02.28-.26.48-.53.46-.28-.02-.48-.26-.46-.54.03-.27.27-.48.55-.46.27.03.48.27.45.54zm-1.97.34c-.02.28-.27.48-.54.46-.3-.03-.5-.27-.47-.54.03-.28.27-.48.54-.46.28.02.48.27.46.54zm-1.98.3c-.02.28-.27.48-.54.46-.27-.02-.47-.27-.45-.54.03-.28.27-.48.54-.46.27.02.47.27.45.54zm-2 .25c0 .28-.25.48-.53.46-.27 0-.48-.25-.46-.53.03-.27.27-.48.54-.46.28.04.48.28.46.55zm-1.98.26c-.02.28-.26.5-.54.46-.27-.02-.48-.26-.45-.53.02-.28.26-.48.54-.46.27.02.48.26.45.54zm-2 .2c0 .27-.26.47-.53.45-.28-.02-.48-.27-.46-.54.02-.27.27-.47.54-.45.28.02.48.27.46.54zm-2 .16c0 .28-.25.48-.53.46-.27-.02-.48-.27-.45-.54 0-.28.25-.48.53-.46.27.02.47.27.45.54zm-2 .15c0 .3-.25.5-.53.47-.27-.02-.48-.27-.45-.54 0-.28.25-.48.53-.46.27.03.48.27.45.54zm-2 .1c0 .27-.25.48-.53.46-.27-.03-.48-.27-.45-.54 0-.28.25-.48.53-.46.27.02.48.26.45.54zm-2 .08c0 .28-.25.48-.53.46-.27-.02-.48-.26-.46-.54.03-.27.27-.48.54-.46.28.03.48.27.46.54zm-2 .04c-.02.27-.26.48-.53.46-.28-.03-.48-.27-.46-.54.02-.28.27-.48.54-.46.28.02.48.26.46.54zm-2 0c-.02.28-.26.48-.54.46-.27-.02-.48-.27-.45-.54.02-.28.26-.48.54-.46.27.02.48.27.45.54zm-2 0c-.02.28-.26.48-.54.46-.27-.02-.48-.26-.46-.54.03-.27.27-.48.54-.46.3.03.5.27.47.54zm-2-.08c-.02.28-.27.48-.54.46-.28-.02-.48-.26-.46-.54.02-.27.27-.48.54-.46.3.03.5.27.47.54zm-2-.08c-.03.28-.27.48-.54.46-.28-.02-.48-.27-.46-.54.02-.28.26-.48.54-.46.28.02.5.27.47.54zm-2-.1c-.03.27-.27.48-.54.46-.28-.03-.48-.27-.46-.54.02-.28.26-.48.54-.46.28.02.5.26.47.54zm-2-.15c-.03.3-.27.5-.54.47-.28-.02-.48-.26-.46-.54.02-.27.26-.48.54-.46.3.03.5.27.47.54zm-2-.2c-.02.28-.26.5-.54.46-.27-.02-.48-.26-.45-.54.02-.27.26-.48.54-.45.27.02.48.26.45.54zm-2-.2c0 .27-.25.48-.53.46-.27-.03-.48-.27-.46-.54.03-.28.27-.48.54-.46.28.02.48.26.46.54zm-1.98-.24c-.03.28-.27.48-.55.46-.27-.02-.48-.26-.46-.54.02-.27.26-.48.53-.46.28.03.48.27.46.54zm-2-.3c0 .3-.26.5-.53.47-.28-.02-.48-.26-.46-.54.04-.3.28-.5.55-.47.28.03.48.27.46.54zm-1.97-.28c-.03.28-.27.48-.54.46-.3-.02-.5-.27-.47-.54.02-.28.26-.48.54-.46.27.03.48.27.46.54zm-1.98-.35c-.02.28-.26.48-.54.46-.26-.03-.47-.27-.44-.55.02-.27.26-.48.54-.46.27.02.48.26.45.53zm-1.96-.37c-.04.27-.28.48-.55.46-.28-.03-.48-.27-.46-.54 0-.28.25-.48.53-.46.27.02.48.26.46.54zm-1.98-.38c-.02.27-.27.48-.54.46-.28-.03-.48-.27-.46-.54.02-.28.27-.48.54-.46.28.02.48.26.46.54zm-1.95-.46c-.03.28-.27.48-.54.46-.28-.02-.48-.26-.46-.54.02-.27.26-.48.54-.46.3.03.5.27.47.54zm-1.95-.45c-.03.27-.27.48-.54.46-.28-.03-.48-.27-.46-.54.02-.3.26-.5.54-.47.27.02.48.26.46.54zm-1.95-.5c-.02.28-.26.48-.54.46-.27-.02-.48-.26-.45-.54.02-.28.26-.5.54-.47.27.03.48.27.45.54zm-1.93-.53c-.02.27-.26.48-.54.45-.27-.03-.48-.27-.45-.54.02-.28.26-.48.54-.46.26.02.47.26.44.54zm-1.93-.54c0 .28-.25.48-.53.46-.27-.03-.48-.27-.45-.54.02-.28.26-.48.54-.46.27.02.48.27.45.54zm-1.9-.6c-.02.27-.26.47-.54.45-.27-.02-.48-.26-.45-.54.03-.26.27-.47.55-.45.27.03.48.27.45.54zm-1.9-.62c-.03.27-.27.48-.54.45-.28-.02-.48-.26-.46-.54.02-.28.27-.5.54-.46.28.02.48.26.46.54zm-1.9-.64c-.02.27-.27.48-.54.45-.28-.03-.48-.27-.46-.54.03-.28.27-.48.54-.46.28.02.48.26.46.54zm-1.88-.7c-.02.28-.26.48-.54.46-.27-.02-.48-.27-.46-.54.03-.28.27-.48.54-.46.28.02.48.27.46.54zm-1.88-.7c-.02.28-.26.48-.54.46-.27-.02-.48-.26-.46-.54.03-.27.27-.48.54-.45.28.03.48.27.46.54zm-1.86-.75c-.02.27-.26.47-.54.45-.27-.02-.48-.26-.45-.54 0-.26.25-.47.53-.44.27.02.48.26.45.53zm-1.84-.78c-.03.28-.27.48-.54.46-.28-.03-.48-.27-.46-.54.02-.28.26-.48.54-.46.27.02.48.27.46.54zm-1.85-.78c-.03.27-.27.48-.55.46-.27-.03-.48-.27-.46-.54.02-.28.26-.48.53-.46.28.02.48.26.46.54zm-1.82-.85c-.03.26-.27.47-.54.44-.28-.02-.48-.26-.46-.54.02-.27.26-.48.54-.45.28.02.48.26.46.54zm-1.82-.86c-.02.27-.26.48-.54.45-.27-.03-.48-.27-.45-.55.02-.27.26-.48.54-.45.28.02.5.26.46.54zm-1.8-.9c-.02.28-.26.5-.53.46-.28-.02-.48-.26-.46-.54.02-.27.27-.47.54-.45.3.03.5.27.47.55zm-1.77-.92c-.03.28-.27.48-.55.46-.27-.02-.48-.27-.46-.54.02-.28.26-.48.53-.46.28.02.48.27.46.54zm-1.8-.93c0 .27-.25.47-.53.45-.27-.02-.47-.26-.45-.54.02-.26.26-.47.54-.45.27.03.48.27.45.54zm-1.73-1c-.02.28-.26.48-.54.46-.27-.02-.48-.27-.45-.54.02-.28.26-.48.54-.46.27.02.48.27.45.54zm-1.73-1c-.02.28-.27.48-.54.46-.28-.02-.48-.27-.46-.54.02-.28.27-.48.54-.46.28.02.48.27.46.54zm-1.73-1.02c0 .28-.25.48-.52.46-.28-.03-.48-.27-.46-.54.02-.28.26-.48.54-.46.27.02.48.26.45.54zm-1.68-1.07c-.02.28-.26.5-.54.47-.27-.03-.48-.27-.45-.54.02-.28.26-.48.53-.46.28.02.48.26.46.54zm-1.7-1.06c0 .27-.26.48-.53.45-.3-.03-.5-.27-.47-.55.03-.27.27-.48.54-.45.28.02.48.26.46.54zm-1.65-1.12c-.02.27-.27.48-.54.45-.28-.02-.48-.26-.46-.54.02-.27.27-.48.54-.45.3.02.5.26.47.54zm-1.65-1.15c-.02.28-.26.48-.54.46-.27-.02-.48-.26-.45-.54.02-.28.26-.5.53-.47.28.03.48.27.46.54zm-1.64-1.14c-.02.27-.27.48-.54.45-.28-.02-.48-.26-.46-.54.03-.27.27-.48.54-.45.28 0 .48.25.46.53zm-1.6-1.2c-.02.26-.26.47-.54.44-.27-.02-.48-.26-.45-.54 0-.27.25-.48.53-.45.27.02.48.26.45.54zm-1.6-1.22c-.02.28-.26.5-.53.46-.28-.02-.48-.26-.46-.54 0-.27.25-.48.53-.45.27.02.48.26.45.54zm-1.57-1.23c0 .27-.25.48-.53.45-.27-.02-.48-.26-.45-.54.02-.27.26-.48.54-.45.27.02.47.26.45.54zm-1.53-1.28c-.03.27-.27.47-.54.45-.28-.03-.48-.27-.46-.54.02-.27.26-.47.54-.45.3.02.5.27.47.54zm-1.55-1.3c-.02.3-.26.5-.54.47-.27-.02-.48-.26-.45-.54.02-.27.26-.48.53-.45.28.02.48.26.46.53zm-1.5-1.32c-.02.28-.26.48-.54.46-.27-.02-.48-.26-.45-.54.02-.27.26-.48.54-.45.27.02.48.26.45.53zm-1.5-1.33c0 .27-.25.48-.53.45-.28-.02-.5-.26-.46-.54.02-.27.26-.48.54-.45.27.03.48.27.45.55zm-1.46-1.36c-.03.27-.27.47-.54.45-.28-.02-.48-.26-.46-.54.02-.27.26-.47.54-.45.27.03.48.27.46.54zm-1.44-1.4c-.02.27-.26.47-.54.45-.27-.02-.48-.27-.45-.54.02-.27.26-.47.54-.45.27.03.48.27.45.54zm-1.43-1.4c-.03.27-.28.47-.55.45-.28-.02-.48-.27-.46-.54.02-.27.26-.47.53-.45.28.02.48.27.46.54zm-1.4-1.44c-.03.27-.27.48-.55.45-.27 0-.48-.25-.45-.53.02-.27.26-.48.54-.45.27.02.48.26.45.54zm-1.38-1.46c-.02.27-.27.48-.54.45-.28-.02-.48-.26-.46-.54.03-.26.27-.47.54-.44.28.02.48.26.46.54zm-1.37-1.46c-.03.27-.27.48-.54.45-.27-.03-.47-.27-.45-.55.02-.27.26-.47.54-.45.26.02.47.26.45.54zm-1.32-1.52c-.02.28-.26.48-.54.46-.28-.02-.5-.26-.46-.54.02-.27.26-.48.54-.46.27.03.48.27.45.54zm-1.3-1.5c-.03.26-.27.47-.55.45-.27-.03-.48-.27-.45-.54.02-.28.26-.48.54-.46.27.02.48.26.45.54zm-1.3-1.55c-.02.28-.26.48-.54.46-.28-.02-.5-.26-.46-.54.02-.28.26-.5.54-.47.27.03.48.27.45.54zm-1.24-1.56c-.04.28-.28.5-.55.46-.28-.02-.48-.26-.46-.54 0-.27.26-.48.53-.45.28.02.48.26.46.54zm-1.26-1.56c-.02.27-.26.48-.54.45-.27-.03-.48-.27-.46-.55.03-.27.27-.48.54-.45.28.02.48.26.46.54zm-1.2-1.6c-.02.27-.26.47-.54.45-.27-.03-.48-.28-.45-.55.02-.28.26-.48.54-.46.26 0 .47.26.44.53zm-1.18-1.63c-.02.3-.26.5-.54.47-.27-.02-.48-.27-.45-.54.02-.28.26-.48.54-.46.28.02.5.27.46.54zm-1.17-1.6c-.03.26-.27.47-.55.44-.27-.02-.48-.26-.46-.54.02-.27.26-.47.53-.45.28.02.48.26.46.54zm-1.12-1.68c-.02.27-.26.48-.54.46-.28-.03-.48-.27-.46-.54.03-.28.27-.48.54-.46.28.02.48.26.46.54zm-1.1-1.67c-.03.28-.28.48-.55.46-.28 0-.48-.26-.46-.53.03-.28.27-.48.54-.46.3.04.5.28.47.55zm-1.1-1.7c0 .3-.25.5-.53.47-.27-.02-.48-.26-.46-.54.02-.27.26-.48.53-.46.28.03.48.27.46.54zm-1.03-1.7c-.02.28-.26.48-.54.46-.26-.02-.47-.26-.45-.53.03-.28.27-.48.54-.46.27.03.47.28.45.55zm-1.04-1.7c0 .26-.25.47-.53.44-.27-.03-.48-.27-.46-.54.04-.28.28-.48.55-.46.28.02.48.26.46.54zm-.97-1.76c-.02.26-.26.47-.54.45-.28-.03-.5-.27-.46-.54.02-.27.26-.47.54-.45.27.02.48.26.45.54zm-.96-1.77c-.03.28-.27.48-.54.46-.28-.03-.48-.27-.46-.55.02-.27.26-.48.54-.45.28.02.5.26.47.53zm-.95-1.76c-.03.28-.27.48-.54.46-.28-.02-.48-.27-.46-.54.02-.3.26-.5.54-.47.27.02.48.27.46.54zm-.9-1.8c-.02.28-.26.5-.54.46-.27-.02-.48-.26-.45-.54.02-.28.26-.5.54-.46.27.02.48.26.45.54zm-.9-1.8c0 .3-.25.5-.53.47-.3-.02-.5-.26-.47-.54.03-.27.27-.48.54-.46.28.03.48.27.46.54zm-.84-1.8c-.02.27-.26.48-.54.45-.27-.02-.48-.26-.45-.53 0-.3.25-.5.53-.47.27.02.48.26.45.54zm-.8-1.83c-.04.27-.28.48-.55.46-.28-.03-.48-.27-.46-.54.02-.28.26-.48.54-.46.28.02.5.26.47.54zm-.83-1.83c-.02.28-.27.5-.54.47-.27-.03-.47-.27-.45-.54.03-.28.27-.48.54-.46.27.02.47.26.45.54zm-.74-1.85c0 .27-.25.48-.53.45-.27-.02-.48-.26-.46-.54.04-.27.28-.48.55-.45.28.03.48.27.46.55zm-.73-1.87c-.02.28-.26.48-.54.46-.27-.02-.48-.26-.46-.54.03-.27.27-.48.54-.46.3.03.5.27.47.54zm-.7-1.87c-.03.3-.27.5-.55.47-.27-.03-.48-.27-.45-.54.02-.28.26-.48.54-.46.28.02.48.26.46.54zm-.67-1.88c-.02.27-.26.48-.54.46-.27-.03-.48-.27-.46-.54.03-.28.27-.48.54-.46.28.02.48.26.46.54zm-.66-1.9c-.02.28-.26.5-.54.46-.27-.02-.48-.26-.46-.54.03-.27.27-.48.54-.45.28 0 .48.25.46.53zm-.6-1.9c-.02.27-.26.47-.54.45-.27-.02-.48-.26-.45-.54.02-.27.26-.48.54-.45.26.02.47.26.44.53zm-.58-1.92c-.02.27-.26.48-.54.45-.27-.02-.48-.26-.45-.54.02-.26.26-.47.54-.44.28.02.5.26.46.54zm-.56-1.93c-.03.28-.27.48-.54.46-.28-.02-.48-.26-.46-.54.02-.28.27-.5.54-.46.28.02.48.26.46.53zm-.5-1.94c-.03.28-.27.48-.54.46-.28-.03-.48-.27-.46-.55.02-.27.27-.48.54-.46.28.02.48.26.46.53zm-.5-1.94c-.03.27-.27.47-.54.45-.28-.02-.48-.26-.46-.54.02-.26.26-.47.54-.45.28.03.48.27.46.54zm-.45-1.96c-.03.28-.27.48-.54.46-.27-.02-.47-.27-.45-.54.02-.28.26-.48.54-.46.27.03.47.27.45.54zm-.42-1.96c-.02.28-.27.48-.54.46-.3-.02-.5-.26-.47-.54.02-.28.27-.48.54-.46.28.03.48.27.46.54zm-.42-1.96c0 .28-.25.48-.53.46-.27-.02-.48-.26-.46-.54.04-.27.28-.48.55-.46.28.03.48.27.46.54zm-.32-1.97c-.03.27-.27.48-.54.45-.28-.02-.48-.26-.46-.53.02-.28.26-.48.54-.46.27.03.48.27.46.55zm-.34-1.98c-.02.28-.27.48-.54.46-.28-.02-.48-.27-.46-.54.03-.3.27-.5.54-.47.28.03.48.27.46.54zm-.3-1.98c-.02.27-.27.47-.54.45-.28-.02-.48-.27-.46-.54.02-.27.27-.47.54-.45.28.03.48.27.46.54zm-.25-2c-.04.28-.28.48-.55.46-.28-.02-.48-.26-.46-.54 0-.27.25-.48.53-.46.27.03.48.27.46.54zm-.27-1.98c-.02.27-.26.48-.54.45-.28-.02-.5-.26-.46-.54.02-.27.26-.48.53-.45.28.02.48.26.46.54zm-.18-2c-.02.28-.27.48-.54.46-.27-.02-.47-.27-.45-.54.02-.28.27-.48.54-.46.27.02.47.27.45.54zm-.17-2c-.02.28-.27.48-.54.46-.28-.02-.48-.26-.46-.54.02-.27.27-.48.54-.45.28 0 .48.25.46.53zm-.15-2c-.03.28-.27.5-.54.46-.3-.02-.5-.26-.47-.54.02-.27.27-.48.54-.45.28 0 .48.25.46.53zm-.1-2c0 .28-.25.5-.53.46-.27-.02-.48-.26-.46-.54.03-.27.27-.48.54-.45.28 0 .48.25.46.53zm-.07-2c-.03.28-.27.48-.54.46-.28-.02-.48-.26-.46-.54.02-.27.26-.48.54-.46.27.03.48.27.46.54zm-.04-2c-.02.28-.26.48-.54.46-.27-.03-.48-.27-.46-.54.03-.28.27-.48.54-.46.28.02.48.27.46.54zm0-2c-.02.27-.27.48-.54.45-.28-.02-.48-.26-.46-.54.02-.27.27-.48.54-.45.28.02.48.26.46.54zm0-2c-.03.27-.27.47-.54.45-.28-.02-.48-.26-.46-.54.02-.27.26-.48.54-.46.27.03.48.27.46.54zm.08-2c-.03.27-.27.47-.54.45-.28-.02-.48-.27-.46-.54.02-.28.26-.48.54-.46.27.02.48.27.46.54zm.08-2c-.02.26-.27.47-.54.45-.28-.03-.48-.27-.46-.54.02-.28.27-.48.54-.46.28.02.48.26.46.54zm.1-2c-.02.26-.26.47-.54.45-.27-.03-.48-.27-.46-.54.03-.28.27-.48.54-.46.28.02.48.26.46.54zm.15-2c-.03.27-.27.47-.54.45-.3-.03-.5-.27-.47-.54.02-.28.26-.48.54-.46.27.02.48.26.46.54zm.2-2c-.02.27-.26.48-.54.45-.28-.02-.5-.26-.46-.54.02-.27.26-.48.54-.45.27.02.48.26.45.54zm.2-2c0 .28-.25.48-.53.46-.27-.02-.48-.26-.46-.54.03-.27.27-.48.54-.46.28.03.48.27.46.54zm.25-2c-.03.3-.27.5-.54.47-.28-.03-.48-.27-.46-.55.02-.27.26-.48.54-.46.27.02.48.26.46.53zm.3-1.97c-.04.28-.28.48-.55.46-.28 0-.48-.26-.46-.53.02-.28.26-.48.54-.46.3.04.5.28.47.55zm.28-1.98c-.03.27-.27.48-.54.46-.28-.03-.48-.27-.46-.54.02-.3.27-.5.54-.47.28.02.48.26.46.54zm.35-1.97c-.02.27-.26.48-.53.45-.28-.02-.48-.26-.46-.54.03-.26.27-.47.55-.44.27.02.48.26.46.54zm.38-1.97c-.02.27-.26.48-.54.46-.27-.04-.48-.28-.46-.55.03-.28.27-.48.54-.46.28 0 .48.25.46.53zm.38-1.97c-.02.28-.26.48-.54.46-.27-.02-.48-.27-.46-.54.03-.28.27-.48.54-.46.28.02.48.27.46.54zm.46-1.95c-.03.3-.27.5-.54.47-.28-.03-.48-.27-.46-.54.02-.28.26-.48.54-.46.27.02.48.26.46.54zm.45-1.94c-.02.27-.26.48-.54.46-.27-.03-.48-.27-.46-.54.03-.28.27-.48.54-.46.3.02.5.26.47.54zm.5-1.94c-.03.27-.27.48-.54.45-.28-.02-.48-.26-.46-.54.02-.27.26-.48.54-.45.28.02.5.26.47.54zm.53-1.93c-.02.26-.26.47-.54.44-.27-.02-.48-.26-.45-.54.03-.27.27-.48.54-.45.28.02.48.26.46.54zm.54-1.94c-.02.27-.27.48-.54.45-.28 0-.48-.25-.46-.53.03-.27.27-.48.54-.45.28.02.48.26.46.54zm.6-1.9c-.02.26-.26.47-.53.44-.27-.02-.47-.26-.45-.54.02-.27.26-.48.54-.45.26.03.47.27.45.55zm.62-1.92c-.02.28-.26.48-.54.46-.27-.03-.48-.27-.45-.54.02-.28.26-.48.54-.46.28.02.5.27.46.54zm.64-1.9c-.02.28-.26.48-.54.46-.27-.02-.48-.27-.45-.54.03-.28.27-.48.54-.46.28.03.48.27.46.54zm.7-1.88c-.02.28-.27.48-.54.46-.28-.02-.48-.26-.46-.54.02-.27.27-.48.54-.46.28.03.48.27.46.54zm.7-1.88c-.03.28-.27.48-.54.46-.28-.02-.48-.26-.46-.54.02-.27.26-.48.54-.46.27.03.48.27.45.54zm.74-1.85c-.02.27-.26.48-.53.45-.27-.02-.47-.26-.45-.54.02-.27.26-.48.54-.45.26 0 .47.25.44.53zm.78-1.85c-.02.27-.27.48-.54.46-.28-.03-.48-.27-.46-.54.03-.28.27-.48.54-.46.28.02.48.26.46.54zm.78-1.85c-.02.28-.26.48-.54.46-.27-.03-.48-.27-.46-.55.03-.27.27-.48.54-.46.28.02.48.26.46.53zm.85-1.8c-.02.27-.26.47-.54.45-.26-.03-.47-.27-.44-.54.02-.28.26-.48.54-.46.27.02.48.26.45.54zm.85-1.82c-.02.28-.26.5-.54.46-.27-.02-.48-.26-.45-.54.03-.27.27-.48.55-.45.27.02.48.26.45.54zm.9-1.8c-.03.3-.27.5-.55.47-.27-.03-.48-.27-.45-.54.02-.28.26-.48.54-.46.27.02.47.27.45.54zm.92-1.77c-.02.28-.27.48-.54.46-.28-.03-.48-.27-.46-.55.02-.27.27-.48.54-.46.28.02.48.26.46.53zm.93-1.77c-.03.27-.27.48-.54.45-.27 0-.47-.25-.45-.53.02-.27.26-.47.54-.45.26.02.47.26.45.54zm1-1.74c-.03.27-.28.48-.55.45-.28-.02-.48-.26-.46-.54.02-.27.27-.48.54-.45.28.02.48.26.46.54zm1-1.74c-.03.28-.28.48-.55.46-.28-.02-.48-.27-.46-.54.02-.28.27-.48.54-.46.28.02.48.27.46.54zm1-1.72c0 .27-.25.48-.53.45-.28 0-.48-.25-.46-.52.03-.28.27-.48.54-.46.28.02.48.26.46.54zm1.08-1.7c-.02.28-.26.48-.54.46-.28-.02-.5-.26-.47-.54.03-.27.27-.48.54-.45.28.02.48.26.46.53zm1.07-1.7c-.02.3-.26.5-.54.47-.27-.02-.48-.27-.45-.54.03-.3.27-.5.55-.47.27.03.48.27.45.54zm1.12-1.65c-.02.3-.26.5-.54.47-.27-.02-.48-.27-.45-.54.02-.28.26-.48.54-.46.27.02.48.27.45.54zm1.15-1.64c-.03.28-.27.48-.54.46-.28-.02-.48-.26-.46-.54.02-.27.26-.48.54-.45.28.02.5.26.47.53zm1.14-1.64c0 .28-.25.48-.53.46-.27-.02-.48-.27-.45-.54.02-.28.26-.48.54-.46.27.03.48.27.45.54zm1.22-1.6c-.02.28-.26.5-.54.46-.27-.02-.48-.26-.45-.54.02-.27.26-.48.54-.45.27 0 .48.25.45.53zm1.2-1.6c0 .28-.25.5-.53.46-.28-.02-.5-.26-.46-.53.02-.28.26-.48.54-.46.27 0 .48.25.45.53zm1.25-1.56c-.02.27-.26.47-.54.45-.27 0-.48-.25-.45-.53.02-.27.26-.48.54-.45.27.02.48.26.45.54zm1.28-1.55c-.02.3-.27.5-.54.47-.27-.03-.47-.27-.45-.54.03-.28.27-.48.54-.46.27.02.47.26.45.54zm1.27-1.54c-.02.28-.26.48-.53.46-.3-.02-.5-.26-.47-.54.02-.27.26-.48.54-.45.27.02.48.26.45.53zm1.33-1.5c-.02.28-.26.5-.53.46-.28-.02-.48-.26-.46-.54.02-.27.26-.48.54-.45.27.02.48.26.45.54zm1.34-1.48c-.03.27-.27.48-.55.45-.27-.02-.48-.26-.45-.54.02-.28.26-.5.54-.46.27.02.48.26.45.54zm1.35-1.48c-.03.27-.27.48-.54.46-.27-.03-.47-.27-.45-.54.02-.28.26-.48.54-.46.27.02.47.26.45.54zm1.4-1.43c-.03.27-.27.48-.54.45-.27-.02-.47-.26-.45-.54.02-.27.27-.48.54-.45.27.02.47.26.45.54zm1.4-1.44c-.02.28-.27.48-.54.46-.27-.03-.47-.28-.45-.55.02-.28.27-.48.54-.46.27.02.47.26.45.53zm1.43-1.4c-.02.28-.26.5-.54.46-.27-.03-.48-.27-.45-.55 0-.27.25-.48.53-.45.27.02.48.26.45.54zm1.46-1.37c-.02.28-.26.48-.54.46-.27-.02-.48-.27-.45-.54.02-.28.26-.48.54-.46.26.03.47.27.44.54zm1.46-1.37c-.02.26-.26.47-.54.45-.27-.03-.48-.27-.45-.54.03-.27.27-.47.55-.45.27.02.47.26.45.54zm1.52-1.32c-.03.27-.27.48-.54.45-.28-.02-.48-.26-.46-.54.02-.28.26-.5.54-.46.27.02.48.26.46.54zm1.5-1.3c0 .26-.25.47-.53.44-.28-.02-.5-.26-.47-.54.03-.27.27-.48.54-.45.28.02.48.26.46.54zm1.55-1.3c-.03.27-.27.48-.54.45-.28-.02-.48-.26-.46-.54.02-.28.26-.5.54-.46.28.02.5.26.47.54zm1.56-1.25c-.02.28-.26.48-.54.46-.28-.04-.5-.28-.46-.55.02-.28.26-.48.54-.46.27 0 .48.26.45.53zm1.57-1.25c-.02.28-.26.48-.54.46-.27-.02-.48-.26-.45-.54.03-.27.27-.48.55-.46.27.03.48.27.45.54zm1.6-1.2c0 .28-.26.5-.53.46-.28-.02-.48-.26-.46-.54.03-.27.28-.48.55-.45.28.02.48.26.46.54zm1.63-1.17c-.02.28-.27.5-.54.46-.3-.02-.5-.26-.47-.54.02-.27.27-.48.54-.45.28.02.48.26.46.54zm1.62-1.17c-.02.28-.26.48-.54.46-.26-.03-.47-.27-.44-.55.02-.27.26-.48.54-.46.27.02.47.26.45.53zm1.67-1.1c-.02.27-.26.47-.54.45-.27-.02-.48-.26-.46-.54.03-.28.27-.48.54-.46.28.03.48.27.46.54zm1.67-1.12c-.04.3-.28.5-.55.47-.28-.02-.48-.27-.46-.54 0-.28.26-.48.53-.46.28.03.48.27.46.54zm1.68-1.07c-.03.28-.27.48-.54.46-.28-.03-.48-.27-.46-.55.02-.27.26-.48.54-.46.27.02.48.26.46.53zm1.7-1.04c0 .27-.26.47-.53.45-.28-.02-.48-.26-.46-.54.02-.26.26-.47.53-.45.28.03.48.27.46.54zm1.72-1.05c-.02.28-.26.48-.54.46-.27 0-.48-.25-.45-.53.03-.27.27-.48.54-.46.28.04.48.28.46.55zm1.75-.97c-.02.27-.26.48-.54.45-.26-.02-.47-.26-.45-.54.03-.28.27-.5.54-.46.27.02.47.26.45.54zm1.75-.97c-.02.28-.26.5-.53.47-.28-.03-.48-.27-.46-.54.03-.28.27-.48.55-.46.27.02.48.26.45.54zm1.77-.94c-.02.27-.27.48-.54.46-.28-.03-.48-.27-.46-.54.02-.28.27-.48.54-.46.3.02.5.26.47.54zm1.8-.9c-.03.28-.27.5-.55.46-.27-.02-.48-.26-.45-.54.02-.27.26-.48.54-.45.28.02.5.26.46.54zm1.8-.9c-.04.3-.28.5-.55.47-.28-.02-.48-.26-.46-.54.02-.3.26-.5.54-.47.27.03.48.27.46.54zm1.8-.83c-.02.27-.26.48-.54.45-.27-.02-.48-.26-.45-.54.02-.27.26-.48.53-.45.3 0 .5.25.47.53zm1.83-.82c-.02.28-.26.5-.54.47-.27-.03-.48-.27-.46-.54.03-.28.27-.48.54-.46.28.02.48.26.46.54zm1.83-.8c-.02.27-.26.47-.54.45-.28-.02-.5-.27-.47-.54.03-.27.27-.47.54-.45.28.03.48.27.46.54zm1.86-.75c-.03.28-.27.48-.55.46-.27 0-.48-.25-.45-.53.02-.27.26-.48.54-.46.27.04.48.28.45.55zm1.86-.74c-.03.3-.27.5-.54.47-.28-.02-.48-.26-.46-.54.02-.27.26-.48.54-.46.27.03.48.27.46.54zm1.87-.7c-.02.28-.26.48-.54.46-.3-.02-.5-.26-.47-.54.03-.27.27-.48.54-.45.28.02.48.26.46.54zm1.9-.66c-.03.28-.27.48-.55.46-.27-.02-.48-.26-.46-.54.03-.27.27-.48.54-.46.28.03.48.27.46.54zm1.88-.66c0 .28-.25.48-.53.46-.27-.02-.48-.26-.45-.54.02-.27.26-.48.54-.46.27.03.48.27.45.54zm1.92-.6c-.02.28-.26.5-.53.46-.3-.02-.5-.26-.47-.54.02-.27.26-.48.54-.45.27.02.48.26.45.54zm1.92-.57c-.02.28-.26.5-.54.46-.27-.02-.48-.26-.45-.54.02-.27.26-.48.54-.45.26.02.47.26.44.54zm1.92-.56c-.02.28-.26.48-.53.46-.28-.03-.48-.27-.46-.54.02-.28.26-.48.54-.46.28.02.5.27.46.54zm1.95-.5c-.02.28-.26.48-.53.46-.28-.03-.48-.27-.46-.54.03-.28.27-.48.55-.46.27.02.48.27.46.54zm1.95-.5c-.03.28-.27.48-.54.46-.27-.03-.47-.27-.45-.54.02-.28.26-.48.54-.46.26.02.47.26.45.54zm1.95-.45c-.03.27-.27.47-.54.45-.28-.03-.48-.27-.46-.54.02-.27.27-.47.54-.45.28.02.48.26.46.54zm1.96-.43c-.03.28-.27.48-.54.46-.28-.02-.48-.27-.46-.54.02-.3.26-.5.54-.47.28.02.48.27.46.54zm1.96-.42c-.03.28-.27.48-.54.46-.28 0-.48-.25-.46-.53.02-.27.26-.48.54-.46.27.04.48.28.46.55zm1.97-.33c-.03.27-.27.48-.55.46-.27-.03-.48-.27-.45-.54.02-.28.26-.48.53-.46.28.02.48.26.46.54zm1.97-.34c-.03.28-.27.48-.54.46-.28-.02-.48-.27-.46-.54.02-.28.27-.48.54-.46.3.03.5.27.47.54zm1.98-.3c-.03.28-.27.48-.54.46-.27-.02-.47-.27-.45-.54.02-.28.27-.48.54-.46.27.02.47.27.45.54zm2-.25c-.04.27-.28.48-.55.46-.28-.04-.48-.28-.46-.55.02-.28.26-.48.54-.46.27 0 .48.25.46.53zm1.97-.26c-.02.28-.26.48-.54.46-.27-.02-.48-.26-.45-.54.02-.28.26-.5.54-.46.27.02.48.26.45.53zm2-.18c-.02.27-.27.47-.54.45-.28-.02-.48-.27-.46-.54.02-.27.27-.47.54-.45.28.02.48.27.46.54zm2-.18c-.03.28-.27.48-.55.46-.27-.02-.47-.27-.45-.54.02-.28.26-.48.54-.46.27.02.48.27.45.54zm2-.15c-.03.28-.27.48-.55.46-.27-.03-.48-.27-.45-.54.02-.3.26-.5.54-.47.27.02.48.27.45.54zm2-.1c-.03.3-.27.5-.55.47-.27-.02-.48-.26-.45-.54.02-.27.26-.48.54-.46.27.03.48.27.45.54zm2-.07c-.03.27-.27.48-.54.46-.28-.03-.48-.27-.46-.54.02-.28.26-.48.54-.46.27.02.48.26.46.54zm2-.04c-.02.28-.27.48-.54.46-.28-.02-.48-.26-.46-.54.03-.27.27-.48.54-.46.28.03.48.27.46.54zm2 0c-.02.28-.26.48-.54.46-.27-.02-.48-.27-.45-.54.02-.28.26-.48.54-.46.27.02.48.27.45.54zm2 0c-.02.27-.26.48-.53.46-.3-.03-.5-.27-.47-.54.02-.28.26-.48.54-.46.27.02.48.26.46.54zm2 .08c0 .27-.26.48-.53.46-.3-.03-.5-.27-.47-.54.02-.28.27-.48.54-.46.28.02.48.26.46.54zm2 .08c0 .28-.25.48-.53.46-.28-.02-.5-.27-.47-.54.03-.28.27-.48.54-.46.28.02.48.27.46.54zm2 .1c0 .28-.25.48-.53.46-.28-.02-.5-.26-.47-.54.03-.27.27-.48.54-.46.28.03.48.27.46.54zm2 .15c0 .27-.25.48-.53.46-.3-.03-.5-.27-.47-.54.03-.3.27-.5.54-.47.28.02.48.26.46.54zm2 .2c-.02.28-.26.5-.54.46-.27-.02-.48-.26-.45-.54.02-.28.26-.5.54-.46.27.02.48.26.45.54zm2 .2c-.03.3-.27.5-.54.47-.28-.02-.48-.26-.46-.54.02-.27.26-.48.54-.46.27.03.48.27.46.54zm2 .25c-.04.27-.28.48-.55.46-.28-.03-.48-.27-.46-.54.03-.28.27-.48.55-.46.27.02.48.26.46.54zm1.97.3c-.04.27-.28.47-.55.45-.28-.03-.48-.27-.46-.54 0-.28.26-.48.53-.46.28.02.48.26.46.54zm1.97.28c-.02.28-.26.48-.54.46-.27-.03-.48-.27-.46-.54.03-.28.27-.48.54-.46.3.02.5.27.47.54zm1.97.35c-.02.27-.26.48-.54.46-.27-.02-.48-.26-.45-.53.02-.28.26-.48.54-.46.26.03.47.27.44.55zm1.97.37c0 .28-.25.48-.53.46-.27-.02-.48-.26-.46-.54.04-.27.28-.48.55-.46.28.03.48.27.46.54zm1.98.38c-.02.28-.27.48-.54.46-.28-.02-.48-.26-.46-.54.02-.27.27-.48.54-.46.28.03.48.27.46.54zm1.95.46c-.02.27-.26.48-.54.46-.3-.03-.5-.27-.47-.54.03-.28.27-.48.54-.46.28.02.48.26.46.54zm1.95.45c-.02.3-.26.5-.54.47-.27-.02-.48-.26-.46-.54.03-.27.27-.48.54-.46.28.03.48.27.46.54zm1.94.5c-.02.28-.26.5-.54.47-.27-.03-.48-.27-.45-.54.02-.28.26-.48.54-.46.27.02.48.26.45.54zm1.93.54c-.02.28-.26.48-.54.46-.26-.02-.47-.26-.44-.54.02-.27.26-.48.54-.45.27.03.48.27.45.54zm1.93.54c-.02.28-.26.48-.54.46-.27-.02-.48-.27-.45-.54 0-.28.25-.48.53-.46.27.03.48.27.45.54zm1.9.6c0 .28-.25.5-.53.47-.27-.03-.48-.27-.45-.54.02-.27.26-.47.54-.45.27.02.48.26.45.54zm1.92.63c-.02.28-.27.5-.54.46-.28-.02-.48-.26-.46-.54.03-.27.27-.48.54-.45.28.02.48.26.46.54zm1.9.64c-.03.28-.27.48-.54.46-.28-.02-.48-.26-.46-.54.02-.27.27-.48.54-.45.28.03.48.27.46.54zm1.88.7c-.03.28-.27.48-.54.46-.28-.02-.48-.27-.46-.54.02-.28.26-.48.54-.46.27.02.48.27.46.54zm1.88.7c-.03.27-.27.48-.54.45-.28-.03-.48-.27-.46-.54.02-.28.26-.48.54-.46.27.02.48.26.46.54zm1.85.75c0 .26-.25.47-.53.44-.27-.02-.48-.26-.45-.53.02-.27.26-.47.54-.45.27.02.48.26.45.54zm1.86.76c-.02.28-.26.48-.54.46-.27-.02-.48-.27-.46-.54.03-.28.27-.48.54-.46.28.03.48.27.46.54zm1.85.78c-.02.28-.26.48-.53.46-.28-.02-.48-.26-.46-.54.03-.27.27-.48.55-.46.27.03.48.27.46.54zm1.82.86c-.02.27-.26.48-.54.45-.28-.02-.48-.26-.46-.54.03-.26.27-.47.54-.44.28.02.48.26.46.54zm1.8.85c0 .27-.25.48-.53.45-.28-.02-.5-.26-.46-.54.02-.27.26-.48.54-.45.27.03.48.27.45.55zm1.8.9c0 .26-.26.46-.53.44-.3-.03-.5-.27-.47-.55.03-.27.27-.48.54-.45.28.02.48.26.46.54zm1.8.9c-.04.3-.28.5-.55.47-.28-.02-.48-.27-.46-.54.03-.28.27-.48.55-.46.27.02.48.27.46.54zm1.76.94c-.02.26-.26.47-.54.45-.27-.03-.48-.27-.45-.54 0-.27.25-.47.53-.45.27.02.47.26.45.54zm1.74.98c-.02.28-.26.48-.54.46-.27-.02-.48-.27-.45-.54.02-.28.26-.48.54-.46.27.02.48.27.45.54zm1.74 1c-.02.28-.27.48-.54.46-.28-.02-.48-.27-.46-.54.02-.28.27-.48.54-.46.28.02.48.27.46.54zm1.72 1.02c-.02.28-.26.48-.54.46-.27-.02-.48-.26-.45-.54 0-.28.25-.48.52-.46.28.03.48.27.46.54zm1.7 1.07c-.03.28-.27.48-.54.46-.28-.02-.48-.26-.46-.54.02-.28.26-.5.54-.47.27.03.48.27.45.54zm1.7 1.08c-.04.27-.28.48-.55.45-.28-.02-.48-.26-.46-.54.02-.27.27-.48.54-.45.3.03.5.27.47.55zm1.65 1.12c-.02.27-.27.48-.54.45-.3-.02-.5-.26-.47-.54.02-.27.27-.48.54-.45.28.02.48.26.46.54zm1.64 1.14c-.02.28-.26.5-.53.47-.28-.03-.48-.27-.46-.54.02-.28.26-.48.54-.46.27.02.48.26.45.54zm1.65 1.16c-.03.27-.27.48-.54.45-.28 0-.48-.25-.46-.53.02-.27.27-.48.54-.45.28.02.48.26.46.54zm1.6 1.2c-.03.28-.27.5-.55.46-.27-.02-.48-.26-.45-.54.02-.27.26-.48.54-.45.27.02.48.26.45.54zm1.6 1.22c-.03.27-.27.48-.55.45-.27-.02-.48-.26-.45-.54.02-.28.26-.5.53-.46.28.02.48.26.46.54zm1.56 1.24c-.02.27-.26.48-.54.45-.27-.02-.47-.26-.45-.54 0-.27.25-.48.53-.45.27.02.48.26.45.54zm1.55 1.27c-.02.27-.26.47-.54.45-.3-.02-.5-.27-.47-.54.03-.27.27-.47.54-.45.28.03.48.27.46.54zm1.54 1.27c-.02.27-.26.48-.53.45-.28-.02-.48-.26-.46-.53.02-.3.26-.5.54-.47.27.02.48.26.45.54zm1.5 1.33c-.02.27-.26.48-.54.45-.27-.02-.48-.26-.45-.53.02-.28.26-.48.54-.46.27.02.48.26.45.54zm1.5 1.34c-.03.27-.27.48-.55.45-.27-.03-.48-.27-.45-.55.02-.27.26-.48.54-.45.28.02.5.26.46.54zm1.47 1.35c-.02.27-.26.47-.54.45-.27-.03-.48-.27-.46-.54.03-.27.27-.47.54-.45.28.02.48.26.46.54zm1.43 1.4c-.02.27-.26.47-.54.45-.27-.03-.48-.27-.45-.54.02-.27.26-.47.54-.45.27.02.48.27.45.54zm1.44 1.4c-.02.27-.26.47-.53.45-.28-.02-.48-.27-.46-.54.03-.27.28-.47.55-.45.28.02.48.27.46.54zm1.4 1.43c-.02.27-.26.48-.54.45-.27-.02-.48-.26-.45-.54.03-.27.27-.48.55-.45.27 0 .48.25.45.53zm1.38 1.46c-.03.26-.27.47-.54.44-.28-.02-.48-.26-.46-.54.02-.27.27-.48.54-.45.28.02.48.26.46.54zm1.37 1.45c-.02.27-.26.47-.54.45-.26-.02-.47-.26-.45-.54.03-.27.27-.48.54-.45.27.03.47.27.45.55zm1.3 1.5c0 .28-.25.5-.53.47-.27-.03-.48-.27-.45-.54.02-.28.26-.48.54-.46.28.02.5.26.46.54zm1.32 1.52c-.02.28-.26.48-.54.46-.27-.02-.48-.26-.45-.54.02-.28.26-.5.54-.47.27.03.48.27.45.54zm1.3 1.54c-.03.28-.27.5-.55.47-.27-.03-.48-.27-.45-.54.02-.28.26-.48.54-.46.28.02.5.26.46.54zm1.24 1.58c0 .27-.26.48-.53.45-.28-.02-.48-.26-.46-.54.04-.28.28-.5.55-.46.28.02.48.26.46.54zm1.26 1.57c-.03.27-.27.48-.54.45-.28-.02-.48-.26-.46-.54.02-.27.26-.48.54-.45.27.03.48.27.46.55zm1.2 1.6c-.03.28-.27.48-.55.46-.26 0-.47-.26-.44-.53.02-.28.26-.48.54-.46.27.03.48.28.45.55zm1.17 1.62c-.02.28-.26.48-.54.46-.28-.02-.5-.27-.46-.54.02-.3.26-.5.54-.47.27.02.48.27.45.54zm1.18 1.63c-.02.27-.26.47-.53.45-.28-.02-.48-.26-.46-.54.03-.26.27-.47.55-.44.27.02.48.26.46.54zm1.12 1.66c-.03.28-.27.48-.54.46-.28-.02-.48-.26-.46-.54.02-.27.26-.48.54-.46.28.03.48.27.46.54zm1.1 1.67c-.02.28-.26.48-.53.46-.3-.04-.5-.28-.47-.55.02-.28.27-.48.54-.46.28 0 .48.26.46.53zm1.1 1.7c-.04.26-.28.47-.55.45-.28-.03-.48-.27-.46-.54.03-.28.27-.48.55-.46.27.02.48.26.46.54zm1.03 1.7c-.03.28-.27.48-.54.46-.27-.03-.47-.28-.45-.55.02-.28.26-.48.54-.46.26.02.47.26.45.53zm1.04 1.7c-.04.3-.28.5-.55.47-.28-.02-.48-.26-.46-.54 0-.27.25-.48.53-.45.27.03.48.27.46.54zm.96 1.76c-.02.27-.26.47-.54.45-.27-.02-.48-.26-.45-.54.02-.26.26-.47.54-.45.28.03.5.27.46.54zm.97 1.75c-.02.27-.26.48-.54.45-.28-.02-.5-.26-.47-.53.03-.28.27-.48.54-.46.28.03.48.27.46.55zm.95 1.76c-.02.3-.26.5-.54.47-.27-.02-.48-.27-.46-.54.03-.28.27-.48.54-.46.28.02.48.27.46.54zm.9 1.8c-.03.28-.27.5-.55.46-.27-.02-.48-.26-.45-.54.02-.27.26-.48.54-.45.27.02.48.26.45.54zm.9 1.8c-.04.27-.28.48-.55.46-.28-.03-.48-.27-.46-.54.02-.28.26-.48.54-.46.3.02.5.26.47.54zm.83 1.8c0 .3-.25.5-.53.47-.27-.02-.48-.26-.45-.54.02-.27.26-.48.54-.45.27.02.48.26.45.53zm.83 1.84c-.02.28-.26.48-.54.46-.28-.02-.5-.26-.47-.54.03-.27.27-.48.54-.46.28.03.48.27.46.54zm.82 1.83c-.03.28-.27.48-.54.46-.27-.02-.47-.26-.45-.54.02-.28.27-.5.54-.47.27.03.47.27.45.54zm.74 1.87c-.04.27-.28.48-.55.45-.28-.03-.48-.27-.46-.55 0-.27.25-.48.53-.45.27.02.48.26.46.54zm.73 1.86c-.03.27-.27.48-.54.46-.3-.03-.5-.27-.47-.54.02-.28.26-.48.54-.46.27.02.48.26.46.54zm.7 1.87c-.02.28-.26.48-.54.46-.28-.02-.48-.26-.46-.54.02-.3.26-.5.54-.47.27.03.48.27.45.54zm.67 1.9c-.03.27-.27.47-.54.45-.28-.02-.48-.26-.46-.54.02-.27.26-.48.54-.46.27.03.48.27.46.54zm.66 1.9c-.03.26-.27.47-.54.44-.28 0-.48-.25-.46-.53.02-.27.26-.48.54-.45.27.02.48.26.46.54zm.6 1.9c-.03.27-.27.48-.55.45-.26-.02-.47-.26-.44-.53.02-.3.26-.5.54-.47.27.02.48.26.45.54zm.57 1.92c-.02.26-.26.47-.54.44-.28-.02-.5-.26-.46-.54.02-.27.26-.48.54-.45.27.02.48.26.45.54zm.57 1.9c-.02.28-.27.5-.54.46-.28-.02-.48-.26-.46-.53.03-.28.27-.48.54-.46.28.02.48.26.46.54zm.5 1.95c-.02.27-.27.48-.54.46-.28-.02-.48-.26-.46-.53.03-.28.27-.48.54-.46.28.03.48.27.46.55zm.5 1.94c-.02.26-.26.47-.54.45-.28-.03-.48-.27-.46-.54.03-.27.27-.47.54-.45.28.02.48.26.46.54zm.45 1.94c-.02.28-.26.48-.54.46-.27-.03-.47-.27-.45-.54.03-.28.27-.48.54-.46.27.02.47.27.45.54zm.42 1.96c-.02.28-.27.48-.54.46-.28-.03-.48-.27-.46-.54.02-.28.27-.48.54-.46.3.02.5.26.47.54zm.42 1.96c-.04.27-.28.48-.55.46-.28-.03-.48-.27-.46-.54 0-.28.25-.48.53-.46.27.02.48.26.46.54zm.32 1.97c-.02.28-.26.48-.54.46-.27-.03-.48-.27-.46-.55.03-.27.27-.48.54-.45.28.02.48.26.46.53zm.34 1.98c-.03.3-.27.5-.54.47-.28-.03-.48-.27-.46-.54.02-.28.27-.48.54-.46.28.02.48.27.46.54zm.3 2c-.02.27-.27.47-.54.45-.28-.03-.48-.27-.46-.54.02-.27.27-.47.54-.45.28.02.48.27.46.54zm.25 1.98c0 .27-.25.48-.53.46-.27-.03-.48-.27-.46-.54.04-.28.28-.48.55-.46.28.02.48.26.46.54zm.26 2c-.02.26-.26.47-.53.44-.28-.02-.48-.26-.46-.54.02-.27.26-.48.54-.45.28.02.5.26.46.54zm.2 1.98c-.03.28-.28.48-.55.46-.27-.02-.47-.27-.45-.54.02-.28.27-.48.54-.46.27.02.47.27.45.54zm.16 2c-.02.27-.27.48-.54.45-.28 0-.48-.25-.46-.53.02-.27.27-.47.54-.45.28.02.48.26.46.54zm.15 2c-.02.27-.27.48-.54.45-.28 0-.48-.25-.46-.53.03-.27.27-.48.54-.45.3.02.5.26.47.54zm.1 2c-.04.27-.28.48-.55.45-.28 0-.48-.25-.46-.53.02-.27.26-.48.54-.45.27.02.48.26.46.54zm.07 2c-.02.27-.26.48-.54.46-.27-.03-.48-.27-.46-.54.03-.28.27-.48.54-.46.28.02.48.26.46.54zm.04 2c-.03.28-.27.48-.54.46-.28-.02-.48-.27-.46-.54.02-.28.26-.48.54-.46.27.03.48.27.46.54zm0 2c-.02.28-.27.5-.54.46-.28-.02-.48-.26-.46-.54.02-.27.27-.48.54-.45.28.02.48.26.46.54zm0 2c-.02.28-.26.5-.54.47-.27-.03-.48-.27-.46-.54.03-.3.27-.5.54-.47.28.02.48.26.46.54zm-.08 2c-.02.3-.26.5-.54.47-.27-.02-.48-.27-.46-.54.03-.3.27-.5.54-.47.28.02.48.27.46.54zm-.08 2c-.02.3-.27.5-.54.47-.28-.02-.48-.26-.46-.54.02-.28.27-.5.54-.47.28.03.48.27.46.54zm-.1 2c-.03.3-.27.5-.54.47-.28-.02-.48-.26-.46-.54.02-.28.26-.5.54-.47.27.03.48.27.46.54zm-.15 2c-.02.3-.26.5-.54.47-.27-.02-.48-.26-.46-.54.03-.3.27-.5.54-.47.3.03.5.27.47.54z" fill="#ffeca9"/><path d="M1125 1000c0 69.04-55.96 125-125 125-69.04 0-125-55.96-125-125 0-69.04 55.96-125 125-125 69.04 0 125 55.96 125 125z" fill-opacity="0"/><path d="M1127 1000c0 1.1-.9 2-2 2s-2-.9-2-2 .9-2 2-2 2 .9 2 2zm-1.06 16.32c0 1.1-.9 2-2 2s-2-.9-2-2 .9-2 2-2 2 .9 2 2zm-3.2 16.04c0 1.1-.88 2-2 2-1.1 0-2-.9-2-2s.9-2 2-2c1.12 0 2 .9 2 2zm-5.25 15.48c0 1.1-.9 2-2 2s-2-.9-2-2 .9-2 2-2 2 .9 2 2zm-7.25 14.65c0 1.1-.9 2-2 2s-2-.9-2-2 .9-2 2-2 2 .9 2 2zm-9.1 13.58c0 1.1-.9 2-2 2s-2-.9-2-2 .9-2 2-2 2 .9 2 2zm-10.78 12.3c0 1.1-.9 2-2 2s-2-.9-2-2 .9-2 2-2 2 .9 2 2zm-12.28 10.78c0 1.1-.9 2-2 2-1.12 0-2-.9-2-2s.88-2 2-2c1.1 0 2 .9 2 2zm-13.6 9.1c0 1.12-.9 2-2 2s-2-.88-2-2c0-1.1.9-2 2-2s2 .9 2 2zm-14.66 7.25c0 1.1-.9 2-2 2s-2-.9-2-2 .9-2 2-2 2 .9 2 2zm-15.48 5.25c0 1.1-.9 2-2 2s-2-.9-2-2 .9-2 2-2 2 .9 2 2zm-16.04 3.17c0 1.1-.9 2-2 2s-2-.9-2-2 .9-2 2-2 2 .9 2 2zM1002 1125c0 1.1-.9 2-2 2s-2-.9-2-2 .9-2 2-2 2 .9 2 2zm-16.32-1.06c0 1.1-.9 2-2 2s-2-.9-2-2 .9-2 2-2 2 .9 2 2zm-16.04-3.2c0 1.12-.9 2-2 2s-2-.88-2-2c0-1.1.9-2 2-2s2 .9 2 2zm-15.48-5.25c0 1.1-.9 2-2 2s-2-.9-2-2 .9-2 2-2 2 .9 2 2zm-14.65-7.25c0 1.1-.9 2-2 2s-2-.9-2-2 .9-2 2-2 2 .9 2 2zm-13.58-9.1c0 1.1-.9 2-2 2s-2-.9-2-2 .9-2 2-2 2 .9 2 2zm-12.3-10.78c0 1.1-.9 2-2 2s-2-.9-2-2 .9-2 2-2 2 .9 2 2zm-10.78-12.28c0 1.1-.9 2-2 2s-2-.9-2-2c0-1.12.9-2 2-2s2 .88 2 2zm-9.1-13.6c0 1.1-.9 2-2 2-1.12 0-2-.9-2-2s.88-2 2-2c1.1 0 2 .9 2 2zm-7.25-14.66c0 1.1-.9 2-2 2s-2-.9-2-2 .9-2 2-2 2 .9 2 2zm-5.25-15.48c0 1.1-.9 2-2 2s-2-.9-2-2 .9-2 2-2 2 .9 2 2zm-3.17-16.04c0 1.1-.9 2-2 2s-2-.9-2-2 .9-2 2-2 2 .9 2 2zM877 1000c0 1.1-.9 2-2 2s-2-.9-2-2 .9-2 2-2 2 .9 2 2zm1.06-16.32c0 1.1-.9 2-2 2s-2-.9-2-2 .9-2 2-2 2 .9 2 2zm3.2-16.04c0 1.1-.9 2-2 2-1.12 0-2-.9-2-2s.88-2 2-2c1.1 0 2 .9 2 2zm5.25-15.48c0 1.1-.9 2-2 2s-2-.9-2-2 .9-2 2-2 2 .9 2 2zm7.25-14.65c0 1.1-.9 2-2 2s-2-.9-2-2 .9-2 2-2 2 .9 2 2zm9.1-13.58c0 1.1-.9 2-2 2s-2-.9-2-2 .9-2 2-2 2 .9 2 2zm10.78-12.3c0 1.1-.9 2-2 2s-2-.9-2-2 .9-2 2-2 2 .9 2 2zm12.28-10.78c0 1.1-.88 2-2 2-1.1 0-2-.9-2-2s.9-2 2-2c1.12 0 2 .9 2 2zm13.6-9.1c0 1.1-.9 2-2 2s-2-.9-2-2c0-1.12.9-2 2-2s2 .88 2 2zm14.66-7.25c0 1.1-.9 2-2 2s-2-.9-2-2 .9-2 2-2 2 .9 2 2zm15.48-5.25c0 1.1-.9 2-2 2s-2-.9-2-2 .9-2 2-2 2 .9 2 2zm16.04-3.17c0 1.1-.9 2-2 2s-2-.9-2-2 .9-2 2-2 2 .9 2 2zM1002 875c0 1.1-.9 2-2 2s-2-.9-2-2 .9-2 2-2 2 .9 2 2zm16.32 1.06c0 1.1-.9 2-2 2s-2-.9-2-2 .9-2 2-2 2 .9 2 2zm16.04 3.2c0 1.1-.9 2-2 2s-2-.9-2-2c0-1.12.9-2 2-2s2 .88 2 2zm15.48 5.25c0 1.1-.9 2-2 2s-2-.9-2-2 .9-2 2-2 2 .9 2 2zm14.65 7.25c0 1.1-.9 2-2 2s-2-.9-2-2 .9-2 2-2 2 .9 2 2zm13.58 9.1c0 1.1-.9 2-2 2s-2-.9-2-2 .9-2 2-2 2 .9 2 2zm12.3 10.78c0 1.1-.9 2-2 2s-2-.9-2-2 .9-2 2-2 2 .9 2 2zm10.78 12.28c0 1.12-.9 2-2 2s-2-.88-2-2c0-1.1.9-2 2-2s2 .9 2 2zm9.1 13.6c0 1.1-.88 2-2 2-1.1 0-2-.9-2-2s.9-2 2-2c1.12 0 2 .9 2 2zm7.25 14.66c0 1.1-.9 2-2 2s-2-.9-2-2 .9-2 2-2 2 .9 2 2zm5.25 15.48c0 1.1-.9 2-2 2s-2-.9-2-2 .9-2 2-2 2 .9 2 2zm3.17 16.04c0 1.1-.9 2-2 2s-2-.9-2-2 .9-2 2-2 2 .9 2 2zM1127 1000c0 1.1-.9 2-2 2s-2-.9-2-2 .9-2 2-2 2 .9 2 2z" fill="#ffeca9"/><path d="M675 1100h650v160H675z" stroke="#000" stroke-opacity="0" stroke-width="2" fill="#fff" fill-opacity="0"/><use xlink:href="#a" transform="matrix(1,0,0,1,682,1107) translate(16.804000000001338 102.87899999999966)"/><use xlink:href="#b" transform="matrix(1,0,0,1,682,1107) translate(82.01200000000105 102.87899999999966)"/><use xlink:href="#c" transform="matrix(1,0,0,1,682,1107) translate(154.63000000000073 102.87899999999966)"/><use xlink:href="#c" transform="matrix(1,0,0,1,682,1107) translate(221.00800000000044 102.87899999999966)"/><use xlink:href="#d" transform="matrix(1,0,0,1,682,1107) translate(287.38600000000014 102.87899999999966)"/><use xlink:href="#e" transform="matrix(1,0,0,1,682,1107) translate(369.5979999999998 102.87899999999966)"/><use xlink:href="#f" transform="matrix(1,0,0,1,682,1107) translate(446.42799999999943 102.87899999999966)"/><use xlink:href="#g" transform="matrix(1,0,0,1,682,1107) translate(490.4199999999992 102.87899999999966)"/><use xlink:href="#h" transform="matrix(1,0,0,1,682,1107) translate(566.7819999999989 102.87899999999966)"/><path d="M1025 1025h-50l25 45z" stroke="#ffeca9" stroke-width="2" fill-opacity="0"/><g><path d="M1025 1000h-50l25 45z" fill-opacity="0"/><path d="M991.67 1000H975l8.33 15m8.34 15l8.33 15 8.33-15m8.34-15l8.33-15h-16.67" stroke="#ffeca9" stroke-width="2" fill="none"/></g><path d="M975 995h50l-25-45z" fill-opacity="0"/><path d="M1008.33 995H1025l-8.33-15m-8.34-15l-8.33-15-8.33 15m-8.34 15L975 995h16.67" stroke="#ffeca9" stroke-width="2" fill="none"/><path d="M975 970h50l-25-45z" stroke="#ffeca9" stroke-width="2" fill-opacity="0"/><path d="M1150 997.5c0 69.02-55.96 125-125 125-69.04 0-125-55.98-125-125 0-69.05 55.96-125 125-125 69.04 0 125 55.95 125 125z" fill-opacity="0"/><path d="M1151 997.5c0 .54-.45 1-1 1s-1-.46-1-1c0-.56.45-1 1-1s1 .44 1 1zm-.27 7.84c0 .55-.45 1-1 1s-1-.45-1-1c0-.56.45-1 1-1s1 .44 1 1zm-.7 7.82c0 .55-.45 1-1 1-.56 0-1-.45-1-1s.44-1 1-1c.55 0 1 .45 1 1zm-1.25 7.75c0 .56-.45 1-1 1s-1-.44-1-1c0-.54.45-1 1-1s1 .46 1 1zm-1.68 7.68c0 .56-.45 1-1 1s-1-.44-1-1c0-.55.45-1 1-1s1 .45 1 1zm-2.2 7.54c0 .55-.46 1-1 1-.56 0-1-.45-1-1s.44-1 1-1c.54 0 1 .45 1 1zm-2.65 7.4c0 .55-.44 1-1 1-.55 0-1-.45-1-1 0-.56.45-1 1-1 .56 0 1 .44 1 1zm-3.14 7.2c0 .54-.44 1-1 1-.55 0-1-.46-1-1 0-.56.45-1 1-1 .56 0 1 .44 1 1zm-3.54 7c0 .55-.45 1-1 1s-1-.45-1-1c0-.56.45-1 1-1s1 .44 1 1zm-4.03 6.74c0 .55-.45 1-1 1s-1-.45-1-1 .45-1 1-1 1 .45 1 1zm-4.4 6.5c0 .56-.44 1-1 1-.55 0-1-.44-1-1 0-.55.45-1 1-1 .56 0 1 .45 1 1zm-4.83 6.2c0 .54-.45 1-1 1-.56 0-1-.46-1-1 0-.56.44-1 1-1 .55 0 1 .44 1 1zm-5.18 5.9c0 .55-.45 1-1 1s-1-.45-1-1c0-.56.45-1 1-1s1 .44 1 1zm-5.57 5.53c0 .54-.45 1-1 1s-1-.46-1-1c0-.56.45-1 1-1s1 .44 1 1zm-5.87 5.2c0 .56-.45 1-1 1s-1-.44-1-1c0-.55.45-1 1-1s1 .45 1 1zm-6.22 4.8c0 .55-.45 1-1 1s-1-.45-1-1 .45-1 1-1 1 .45 1 1zm-6.48 4.44c0 .55-.44 1-1 1-.55 0-1-.45-1-1s.45-1 1-1c.56 0 1 .45 1 1zm-6.77 3.98c0 .56-.43 1-1 1-.54 0-1-.44-1-1 0-.55.46-1 1-1 .57 0 1 .45 1 1zm-6.97 3.6c0 .55-.45 1-1 1s-1-.45-1-1 .45-1 1-1 1 .45 1 1zm-7.2 3.1c0 .55-.46 1-1 1-.57 0-1-.45-1-1 0-.56.43-1 1-1 .54 0 1 .44 1 1zm-7.4 2.68c0 .55-.44 1-1 1-.54 0-1-.45-1-1s.46-1 1-1c.56 0 1 .45 1 1zm-7.54 2.16c0 .56-.46 1-1 1-.56 0-1-.44-1-1 0-.55.44-1 1-1 .54 0 1 .45 1 1zm-7.67 1.73c0 .55-.45 1-1 1s-1-.45-1-1c0-.56.45-1 1-1s1 .44 1 1zm-7.76 1.2c0 .54-.45 1-1 1-.56 0-1-.46-1-1 0-.56.44-1 1-1 .55 0 1 .44 1 1zm-7.82.74c0 .56-.45 1-1 1s-1-.44-1-1c0-.55.45-1 1-1s1 .45 1 1zm-7.85.25c0 .54-.45 1-1 1s-1-.46-1-1c0-.56.45-1 1-1s1 .44 1 1zm-7.85-.28c0 .55-.45 1-1 1s-1-.45-1-1 .45-1 1-1 1 .45 1 1zm-7.82-.7c0 .54-.45 1-1 1s-1-.46-1-1c0-.56.45-1 1-1s1 .44 1 1zm-7.75-1.25c0 .55-.45 1-1 1-.56 0-1-.45-1-1s.44-1 1-1c.55 0 1 .45 1 1zm-7.67-1.68c0 .54-.44 1-1 1-.55 0-1-.46-1-1 0-.56.45-1 1-1 .56 0 1 .44 1 1zm-7.53-2.22c0 .55-.45 1-1 1s-1-.45-1-1c0-.56.45-1 1-1s1 .44 1 1zm-7.4-2.64c0 .55-.44 1-1 1-.55 0-1-.45-1-1s.45-1 1-1c.56 0 1 .45 1 1zm-7.2-3.15c0 .55-.44 1-1 1-.54 0-1-.45-1-1 0-.56.46-1 1-1 .56 0 1 .44 1 1zm-7-3.55c0 .55-.44 1-1 1-.55 0-1-.45-1-1 0-.56.45-1 1-1 .56 0 1 .44 1 1zm-6.74-4.03c0 .55-.45 1-1 1s-1-.45-1-1 .45-1 1-1 1 .45 1 1zm-6.5-4.4c0 .55-.45 1-1 1-.56 0-1-.45-1-1s.44-1 1-1c.55 0 1 .45 1 1zm-6.2-4.83c0 .54-.44 1-1 1-.54 0-1-.46-1-1 0-.57.46-1 1-1 .56 0 1 .43 1 1zm-5.9-5.2c0 .56-.45 1-1 1s-1-.44-1-1c0-.54.45-1 1-1s1 .46 1 1zm-5.53-5.56c0 .55-.45 1-1 1s-1-.45-1-1 .45-1 1-1 1 .45 1 1zm-5.22-5.87c0 .55-.44 1-1 1-.55 0-1-.45-1-1 0-.56.45-1 1-1 .56 0 1 .44 1 1zm-4.8-6.22c0 .55-.44 1-1 1-.55 0-1-.45-1-1s.45-1 1-1c.56 0 1 .45 1 1zm-4.43-6.48c0 .55-.45 1-1 1-.56 0-1-.45-1-1s.44-1 1-1c.55 0 1 .45 1 1zm-4-6.77c0 .56-.43 1-1 1-.54 0-1-.44-1-1 0-.55.46-1 1-1 .57 0 1 .45 1 1zm-3.58-6.98c0 .55-.45 1-1 1s-1-.45-1-1 .45-1 1-1 1 .45 1 1zm-3.1-7.2c0 .54-.45 1-1 1s-1-.46-1-1c0-.57.45-1 1-1s1 .43 1 1zm-2.68-7.4c0 .56-.46 1-1 1-.57 0-1-.44-1-1 0-.55.43-1 1-1 .54 0 1 .45 1 1zm-2.18-7.54c0 .55-.44 1-1 1-.55 0-1-.45-1-1 0-.56.45-1 1-1 .56 0 1 .44 1 1zm-1.73-7.66c0 .55-.45 1-1 1-.56 0-1-.45-1-1 0-.56.44-1 1-1 .55 0 1 .44 1 1zm-1.2-7.77c0 .56-.45 1-1 1s-1-.44-1-1c0-.55.45-1 1-1s1 .45 1 1zm-.76-7.8c0 .54-.44 1-1 1-.55 0-1-.46-1-1 0-.56.45-1 1-1 .56 0 1 .44 1 1zm-.24-7.86c0 .54-.45 1-1 1s-1-.46-1-1c0-.56.45-1 1-1s1 .44 1 1zm.27-7.86c0 .55-.45 1-1 1s-1-.45-1-1 .45-1 1-1 1 .45 1 1zm.7-7.82c0 .55-.44 1-1 1-.55 0-1-.45-1-1s.45-1 1-1c.56 0 1 .45 1 1zm1.25-7.75c0 .55-.45 1-1 1s-1-.45-1-1c0-.56.45-1 1-1s1 .44 1 1zm1.68-7.68c0 .55-.45 1-1 1s-1-.45-1-1c0-.56.45-1 1-1s1 .44 1 1zm2.2-7.54c0 .55-.44 1-1 1-.54 0-1-.45-1-1s.46-1 1-1c.56 0 1 .45 1 1zm2.65-7.4c0 .55-.45 1-1 1-.56 0-1-.45-1-1s.44-1 1-1c.55 0 1 .45 1 1zm3.14-7.2c0 .56-.45 1-1 1-.56 0-1-.44-1-1 0-.55.44-1 1-1 .55 0 1 .45 1 1zm3.54-7c0 .55-.45 1-1 1s-1-.45-1-1 .45-1 1-1 1 .45 1 1zm4.03-6.74c0 .55-.45 1-1 1s-1-.45-1-1 .45-1 1-1 1 .45 1 1zm4.4-6.5c0 .55-.45 1-1 1-.56 0-1-.45-1-1 0-.56.44-1 1-1 .55 0 1 .44 1 1zm4.83-6.2c0 .56-.44 1-1 1-.55 0-1-.44-1-1 0-.55.45-1 1-1 .56 0 1 .45 1 1zm5.18-5.9c0 .55-.45 1-1 1s-1-.45-1-1 .45-1 1-1 1 .45 1 1zm5.57-5.53c0 .54-.45 1-1 1s-1-.46-1-1c0-.57.45-1 1-1s1 .43 1 1zm5.87-5.23c0 .55-.45 1-1 1s-1-.45-1-1 .45-1 1-1 1 .45 1 1zm6.22-4.8c0 .56-.45 1-1 1s-1-.44-1-1c0-.55.45-1 1-1s1 .45 1 1zm6.48-4.44c0 .56-.45 1-1 1-.56 0-1-.44-1-1 0-.55.44-1 1-1 .55 0 1 .45 1 1zm6.77-3.98c0 .55-.46 1-1 1-.57 0-1-.45-1-1s.43-1 1-1c.54 0 1 .45 1 1zm6.97-3.6c0 .56-.45 1-1 1s-1-.44-1-1c0-.54.45-1 1-1s1 .46 1 1zm7.2-3.1c0 .56-.43 1-1 1-.54 0-1-.44-1-1 0-.54.46-1 1-1 .57 0 1 .46 1 1zm7.4-2.68c0 .56-.46 1-1 1-.56 0-1-.44-1-1 0-.55.44-1 1-1 .54 0 1 .45 1 1zm7.54-2.16c0 .57-.44 1-1 1-.54 0-1-.43-1-1 0-.54.46-1 1-1 .56 0 1 .46 1 1zm7.67-1.72c0 .56-.45 1-1 1s-1-.44-1-1c0-.55.45-1 1-1s1 .45 1 1zm7.76-1.2c0 .56-.44 1-1 1-.55 0-1-.44-1-1 0-.54.45-1 1-1 .56 0 1 .46 1 1zm7.82-.75c0 .56-.45 1-1 1s-1-.44-1-1c0-.55.45-1 1-1s1 .45 1 1zm7.85-.24c0 .54-.45 1-1 1s-1-.46-1-1c0-.56.45-1 1-1s1 .44 1 1zm7.85.26c0 .55-.45 1-1 1s-1-.45-1-1 .45-1 1-1 1 .45 1 1zm7.82.7c0 .56-.45 1-1 1s-1-.44-1-1c0-.55.45-1 1-1s1 .45 1 1zm7.75 1.25c0 .56-.44 1-1 1-.55 0-1-.44-1-1 0-.55.45-1 1-1 .56 0 1 .45 1 1zm7.67 1.7c0 .54-.45 1-1 1-.56 0-1-.46-1-1 0-.56.44-1 1-1 .55 0 1 .44 1 1zm7.53 2.2c0 .55-.45 1-1 1s-1-.45-1-1 .45-1 1-1 1 .45 1 1zm7.4 2.64c0 .55-.45 1-1 1-.56 0-1-.45-1-1 0-.56.44-1 1-1 .55 0 1 .44 1 1zm7.2 3.14c0 .55-.46 1-1 1-.56 0-1-.45-1-1s.44-1 1-1c.54 0 1 .45 1 1zm7 3.55c0 .55-.45 1-1 1-.56 0-1-.45-1-1s.44-1 1-1c.55 0 1 .45 1 1zm6.74 4.03c0 .55-.45 1-1 1s-1-.45-1-1c0-.56.45-1 1-1s1 .44 1 1zm6.5 4.4c0 .55-.44 1-1 1-.55 0-1-.45-1-1 0-.56.45-1 1-1 .56 0 1 .44 1 1zm6.2 4.83c0 .54-.46 1-1 1-.56 0-1-.46-1-1 0-.56.44-1 1-1 .54 0 1 .44 1 1zm5.9 5.17c0 .55-.45 1-1 1s-1-.45-1-1c0-.56.45-1 1-1s1 .44 1 1zm5.53 5.57c0 .55-.45 1-1 1s-1-.45-1-1 .45-1 1-1 1 .45 1 1zm5.22 5.87c0 .56-.45 1-1 1-.56 0-1-.44-1-1 0-.54.44-1 1-1 .55 0 1 .46 1 1zm4.8 6.23c0 .55-.45 1-1 1-.56 0-1-.45-1-1s.44-1 1-1c.55 0 1 .45 1 1zm4.43 6.48c0 .56-.44 1-1 1-.55 0-1-.44-1-1 0-.55.45-1 1-1 .56 0 1 .45 1 1zm4 6.77c0 .56-.46 1-1 1-.57 0-1-.44-1-1 0-.55.43-1 1-1 .54 0 1 .45 1 1zm3.58 7c0 .54-.45 1-1 1s-1-.46-1-1c0-.57.45-1 1-1s1 .43 1 1zm3.1 7.2c0 .55-.45 1-1 1s-1-.45-1-1 .45-1 1-1 1 .45 1 1zm2.68 7.38c0 .55-.43 1-1 1-.54 0-1-.45-1-1s.46-1 1-1c.57 0 1 .45 1 1zm2.18 7.55c0 .55-.45 1-1 1-.56 0-1-.45-1-1s.44-1 1-1c.55 0 1 .45 1 1zm1.73 7.66c0 .55-.44 1-1 1-.55 0-1-.45-1-1s.45-1 1-1c.56 0 1 .45 1 1zm1.2 7.76c0 .55-.45 1-1 1s-1-.45-1-1 .45-1 1-1 1 .45 1 1zm.76 7.82c0 .55-.45 1-1 1-.56 0-1-.45-1-1s.44-1 1-1c.55 0 1 .45 1 1zm.24 7.85c0 .54-.45 1-1 1s-1-.46-1-1c0-.56.45-1 1-1s1 .44 1 1z" fill="#ffeca9"/><path d="M1100 1000c0 69.04-55.96 125-125 125-69.04 0-125-55.96-125-125 0-69.04 55.96-125 125-125 69.04 0 125 55.96 125 125z" fill-opacity="0"/><path d="M1101 1000c0 .55-.45 1-1 1s-1-.45-1-1 .45-1 1-1 1 .45 1 1zm-.27 7.85c0 .55-.45 1-1 1s-1-.45-1-1 .45-1 1-1 1 .45 1 1zm-.7 7.82c0 .55-.45 1-1 1-.56 0-1-.45-1-1s.44-1 1-1c.55 0 1 .45 1 1zm-1.25 7.75c0 .56-.45 1-1 1s-1-.44-1-1c0-.55.45-1 1-1s1 .45 1 1zm-1.68 7.67c0 .55-.45 1-1 1s-1-.45-1-1c0-.56.45-1 1-1s1 .44 1 1zm-2.2 7.53c0 .55-.46 1-1 1-.56 0-1-.45-1-1s.44-1 1-1c.54 0 1 .45 1 1zm-2.65 7.4c0 .55-.44 1-1 1-.55 0-1-.45-1-1 0-.56.45-1 1-1 .56 0 1 .44 1 1zm-3.14 7.2c0 .54-.44 1-1 1-.55 0-1-.46-1-1 0-.56.45-1 1-1 .56 0 1 .44 1 1zm-3.54 7c0 .55-.45 1-1 1s-1-.45-1-1c0-.56.45-1 1-1s1 .44 1 1zm-4.03 6.74c0 .55-.45 1-1 1s-1-.45-1-1 .45-1 1-1 1 .45 1 1zm-4.4 6.5c0 .56-.44 1-1 1-.55 0-1-.44-1-1 0-.55.45-1 1-1 .56 0 1 .45 1 1zm-4.83 6.2c0 .54-.45 1-1 1-.56 0-1-.46-1-1 0-.56.44-1 1-1 .55 0 1 .44 1 1zm-5.18 5.9c0 .55-.45 1-1 1s-1-.45-1-1 .45-1 1-1 1 .45 1 1zm-5.57 5.53c0 .55-.45 1-1 1s-1-.45-1-1 .45-1 1-1 1 .45 1 1zm-5.87 5.22c0 .55-.45 1-1 1s-1-.45-1-1c0-.56.45-1 1-1s1 .44 1 1zm-6.22 4.8c0 .55-.45 1-1 1s-1-.45-1-1c0-.56.45-1 1-1s1 .44 1 1zm-6.48 4.43c0 .56-.44 1-1 1-.55 0-1-.44-1-1 0-.55.45-1 1-1 .56 0 1 .45 1 1zm-6.77 4c0 .54-.43 1-1 1-.54 0-1-.46-1-1 0-.57.46-1 1-1 .57 0 1 .43 1 1zm-6.97 3.58c0 .55-.45 1-1 1s-1-.45-1-1 .45-1 1-1 1 .45 1 1zm-7.2 3.1c0 .55-.46 1-1 1-.57 0-1-.45-1-1s.43-1 1-1c.54 0 1 .45 1 1zm-7.4 2.68c0 .57-.44 1-1 1-.54 0-1-.43-1-1 0-.54.46-1 1-1 .56 0 1 .46 1 1zm-7.54 2.18c0 .55-.46 1-1 1-.56 0-1-.45-1-1 0-.56.44-1 1-1 .54 0 1 .44 1 1zm-7.67 1.73c0 .56-.45 1-1 1s-1-.44-1-1c0-.55.45-1 1-1s1 .45 1 1zm-7.76 1.2c0 .55-.45 1-1 1-.56 0-1-.45-1-1s.44-1 1-1c.55 0 1 .45 1 1zm-7.82.76c0 .55-.45 1-1 1s-1-.45-1-1c0-.56.45-1 1-1s1 .44 1 1zm-7.85.24c0 .55-.45 1-1 1s-1-.45-1-1 .45-1 1-1 1 .45 1 1zm-7.85-.27c0 .55-.45 1-1 1s-1-.45-1-1 .45-1 1-1 1 .45 1 1zm-7.82-.7c0 .55-.45 1-1 1s-1-.45-1-1c0-.56.45-1 1-1s1 .44 1 1zm-7.75-1.25c0 .55-.45 1-1 1-.56 0-1-.45-1-1s.44-1 1-1c.55 0 1 .45 1 1zm-7.67-1.68c0 .55-.44 1-1 1-.55 0-1-.45-1-1s.45-1 1-1c.56 0 1 .45 1 1zm-7.53-2.2c0 .54-.45 1-1 1s-1-.46-1-1c0-.56.45-1 1-1s1 .44 1 1zm-7.4-2.65c0 .56-.44 1-1 1-.55 0-1-.44-1-1 0-.55.45-1 1-1 .56 0 1 .45 1 1zm-7.2-3.14c0 .56-.44 1-1 1-.54 0-1-.44-1-1 0-.55.46-1 1-1 .56 0 1 .45 1 1zm-7-3.54c0 .55-.44 1-1 1-.55 0-1-.45-1-1s.45-1 1-1c.56 0 1 .45 1 1zm-6.74-4.03c0 .55-.45 1-1 1s-1-.45-1-1 .45-1 1-1 1 .45 1 1zm-6.5-4.4c0 .56-.45 1-1 1-.56 0-1-.44-1-1 0-.55.44-1 1-1 .55 0 1 .45 1 1zm-6.2-4.83c0 .55-.44 1-1 1-.54 0-1-.45-1-1 0-.56.46-1 1-1 .56 0 1 .44 1 1zm-5.9-5.18c0 .55-.45 1-1 1s-1-.45-1-1 .45-1 1-1 1 .45 1 1zm-5.53-5.57c0 .55-.45 1-1 1s-1-.45-1-1 .45-1 1-1 1 .45 1 1zm-5.22-5.87c0 .55-.44 1-1 1-.55 0-1-.45-1-1s.45-1 1-1c.56 0 1 .45 1 1zm-4.8-6.22c0 .55-.44 1-1 1-.55 0-1-.45-1-1s.45-1 1-1c.56 0 1 .45 1 1zm-4.43-6.48c0 .56-.45 1-1 1-.56 0-1-.44-1-1 0-.55.44-1 1-1 .55 0 1 .45 1 1zm-4-6.77c0 .57-.43 1-1 1-.54 0-1-.43-1-1 0-.54.46-1 1-1 .57 0 1 .46 1 1zm-3.58-6.97c0 .55-.45 1-1 1s-1-.45-1-1 .45-1 1-1 1 .45 1 1zm-3.1-7.2c0 .54-.45 1-1 1s-1-.46-1-1c0-.57.45-1 1-1s1 .43 1 1zm-2.68-7.4c0 .56-.46 1-1 1-.57 0-1-.44-1-1 0-.54.43-1 1-1 .54 0 1 .46 1 1zm-2.18-7.54c0 .54-.44 1-1 1-.55 0-1-.46-1-1 0-.56.45-1 1-1 .56 0 1 .44 1 1zm-1.73-7.67c0 .55-.45 1-1 1-.56 0-1-.45-1-1s.44-1 1-1c.55 0 1 .45 1 1zm-1.2-7.76c0 .55-.45 1-1 1s-1-.45-1-1c0-.56.45-1 1-1s1 .44 1 1zm-.76-7.82c0 .55-.44 1-1 1-.55 0-1-.45-1-1s.45-1 1-1c.56 0 1 .45 1 1zM851 1000c0 .55-.45 1-1 1s-1-.45-1-1 .45-1 1-1 1 .45 1 1zm.27-7.85c0 .55-.45 1-1 1s-1-.45-1-1 .45-1 1-1 1 .45 1 1zm.7-7.82c0 .55-.44 1-1 1-.55 0-1-.45-1-1s.45-1 1-1c.56 0 1 .45 1 1zm1.25-7.75c0 .55-.45 1-1 1s-1-.45-1-1c0-.56.45-1 1-1s1 .44 1 1zm1.68-7.67c0 .56-.45 1-1 1s-1-.44-1-1c0-.55.45-1 1-1s1 .45 1 1zm2.2-7.53c0 .55-.44 1-1 1-.54 0-1-.45-1-1s.46-1 1-1c.56 0 1 .45 1 1zm2.65-7.4c0 .56-.45 1-1 1-.56 0-1-.44-1-1 0-.55.44-1 1-1 .55 0 1 .45 1 1zm3.14-7.2c0 .56-.45 1-1 1-.56 0-1-.44-1-1 0-.54.44-1 1-1 .55 0 1 .46 1 1zm3.54-7c0 .56-.45 1-1 1s-1-.44-1-1c0-.55.45-1 1-1s1 .45 1 1zm4.03-6.74c0 .55-.45 1-1 1s-1-.45-1-1 .45-1 1-1 1 .45 1 1zm4.4-6.5c0 .55-.45 1-1 1-.56 0-1-.45-1-1 0-.56.44-1 1-1 .55 0 1 .44 1 1zm4.83-6.2c0 .56-.44 1-1 1-.55 0-1-.44-1-1 0-.54.45-1 1-1 .56 0 1 .46 1 1zm5.18-5.9c0 .55-.45 1-1 1s-1-.45-1-1 .45-1 1-1 1 .45 1 1zm5.57-5.53c0 .55-.45 1-1 1s-1-.45-1-1 .45-1 1-1 1 .45 1 1zm5.87-5.22c0 .56-.45 1-1 1s-1-.44-1-1c0-.55.45-1 1-1s1 .45 1 1zm6.22-4.8c0 .56-.45 1-1 1s-1-.44-1-1c0-.55.45-1 1-1s1 .45 1 1zm6.48-4.43c0 .55-.45 1-1 1-.56 0-1-.45-1-1 0-.56.44-1 1-1 .55 0 1 .44 1 1zm6.77-4c0 .57-.46 1-1 1-.57 0-1-.43-1-1 0-.54.43-1 1-1 .54 0 1 .46 1 1zm6.97-3.58c0 .55-.45 1-1 1s-1-.45-1-1 .45-1 1-1 1 .45 1 1zm7.2-3.1c0 .55-.43 1-1 1-.54 0-1-.45-1-1s.46-1 1-1c.57 0 1 .45 1 1zm7.4-2.68c0 .54-.46 1-1 1-.56 0-1-.46-1-1 0-.57.44-1 1-1 .54 0 1 .43 1 1zm7.54-2.18c0 .56-.44 1-1 1-.54 0-1-.44-1-1 0-.55.46-1 1-1 .56 0 1 .45 1 1zm7.67-1.73c0 .55-.45 1-1 1s-1-.45-1-1c0-.56.45-1 1-1s1 .44 1 1zm7.76-1.2c0 .55-.44 1-1 1-.55 0-1-.45-1-1s.45-1 1-1c.56 0 1 .45 1 1zm7.82-.76c0 .56-.45 1-1 1s-1-.44-1-1c0-.55.45-1 1-1s1 .45 1 1zM976 875c0 .55-.45 1-1 1s-1-.45-1-1 .45-1 1-1 1 .45 1 1zm7.85.27c0 .55-.45 1-1 1s-1-.45-1-1 .45-1 1-1 1 .45 1 1zm7.82.7c0 .56-.45 1-1 1s-1-.44-1-1c0-.55.45-1 1-1s1 .45 1 1zm7.75 1.25c0 .55-.44 1-1 1-.55 0-1-.45-1-1s.45-1 1-1c.56 0 1 .45 1 1zm7.67 1.68c0 .55-.45 1-1 1-.56 0-1-.45-1-1s.44-1 1-1c.55 0 1 .45 1 1zm7.53 2.2c0 .56-.45 1-1 1s-1-.44-1-1c0-.54.45-1 1-1s1 .46 1 1zm7.4 2.65c0 .55-.45 1-1 1-.56 0-1-.45-1-1 0-.56.44-1 1-1 .55 0 1 .44 1 1zm7.2 3.14c0 .55-.46 1-1 1-.56 0-1-.45-1-1 0-.56.44-1 1-1 .54 0 1 .44 1 1zm7 3.54c0 .55-.45 1-1 1-.56 0-1-.45-1-1s.44-1 1-1c.55 0 1 .45 1 1zm6.74 4.03c0 .55-.45 1-1 1s-1-.45-1-1 .45-1 1-1 1 .45 1 1zm6.5 4.4c0 .55-.44 1-1 1-.55 0-1-.45-1-1 0-.56.45-1 1-1 .56 0 1 .44 1 1zm6.2 4.83c0 .56-.46 1-1 1-.56 0-1-.44-1-1 0-.55.44-1 1-1 .54 0 1 .45 1 1zm5.9 5.18c0 .55-.45 1-1 1s-1-.45-1-1 .45-1 1-1 1 .45 1 1zm5.53 5.57c0 .55-.45 1-1 1s-1-.45-1-1 .45-1 1-1 1 .45 1 1zm5.22 5.87c0 .55-.45 1-1 1-.56 0-1-.45-1-1s.44-1 1-1c.55 0 1 .45 1 1zm4.8 6.22c0 .55-.45 1-1 1-.56 0-1-.45-1-1s.44-1 1-1c.55 0 1 .45 1 1zm4.43 6.48c0 .55-.44 1-1 1-.55 0-1-.45-1-1 0-.56.45-1 1-1 .56 0 1 .44 1 1zm4 6.77c0 .54-.46 1-1 1-.57 0-1-.46-1-1 0-.57.43-1 1-1 .54 0 1 .43 1 1zm3.58 6.97c0 .55-.45 1-1 1s-1-.45-1-1 .45-1 1-1 1 .45 1 1zm3.1 7.2c0 .57-.45 1-1 1s-1-.43-1-1c0-.54.45-1 1-1s1 .46 1 1zm2.68 7.4c0 .54-.43 1-1 1-.54 0-1-.46-1-1 0-.56.46-1 1-1 .57 0 1 .44 1 1zm2.18 7.54c0 .56-.45 1-1 1-.56 0-1-.44-1-1 0-.54.44-1 1-1 .55 0 1 .46 1 1zm1.73 7.67c0 .55-.44 1-1 1-.55 0-1-.45-1-1s.45-1 1-1c.56 0 1 .45 1 1zm1.2 7.76c0 .56-.45 1-1 1s-1-.44-1-1c0-.55.45-1 1-1s1 .45 1 1zm.76 7.82c0 .55-.45 1-1 1-.56 0-1-.45-1-1s.44-1 1-1c.55 0 1 .45 1 1zm.24 7.85c0 .55-.45 1-1 1s-1-.45-1-1 .45-1 1-1 1 .45 1 1z" fill="#ffeca9"/><defs><path fill="#ffeca9" d="M250-636H4v-64h566v64H324V0h-74v-636" id="i"/><use transform="matrix(0.07799999999999965,0,0,0.07799999999999965,0,0)" xlink:href="#i" id="a"/><path fill="#ffeca9" d="M609-64V0H114v-700h480v64H188v249h362v63H188v260h421" id="j"/><use transform="matrix(0.07799999999999965,0,0,0.07799999999999965,0,0)" xlink:href="#j" id="b"/><path fill="#ffeca9" d="M114-700h74v636h392V0H114v-700" id="k"/><use transform="matrix(0.07799999999999965,0,0,0.07799999999999965,0,0)" xlink:href="#k" id="c"/><path fill="#ffeca9" d="M396 6C210 6 108-107 108-299v-401h74v398c-1 154 68 241 214 242 147-1 215-88 215-242v-398h72v401C685-107 582 6 396 6" id="l"/><use transform="matrix(0.07799999999999965,0,0,0.07799999999999965,0,0)" xlink:href="#l" id="d"/><path fill="#ffeca9" d="M662-460c-1 118-66 190-160 220L673 0h-81L432-225c-76 6-163 2-244 3V0h-74v-700h262c166-3 286 82 286 240zM374-285c128 1 213-56 214-175-1-121-86-176-214-176H188v351h186" id="m"/><use transform="matrix(0.07799999999999965,0,0,0.07799999999999965,0,0)" xlink:href="#m" id="e"/><path fill="#ffeca9" d="M114-700h74V0h-74v-700" id="n"/><use transform="matrix(0.07799999999999965,0,0,0.07799999999999965,0,0)" xlink:href="#n" id="f"/><path fill="#ffeca9" d="M553-187H163L79 0H2l320-700h73L715 0h-78zm-27-60L358-623 190-247h336" id="o"/><use transform="matrix(0.07799999999999965,0,0,0.07799999999999965,0,0)" xlink:href="#o" id="g"/><path fill="#ffeca9" d="M699-700V0h-61L188-568V0h-74v-700h61l451 568v-568h73" id="p"/><use transform="matrix(0.07799999999999965,0,0,0.07799999999999965,0,0)" xlink:href="#p" id="h"/></defs></g></svg>